<svg width="10" height="18" viewBox="0 0 10 18" fill="none" xmlns="http://www.w3.org/2000/svg">
<path fill-rule="evenodd" clip-rule="evenodd" d="M6.5784 0.032055C5.49597 0.191465 4.73566 0.536889 4.11192 1.15257C3.58677 1.67095 3.25909 2.27914 3.07366 3.0795C3.00362 3.38181 2.99468 3.56452 2.9802 4.98855L2.96419 6.56329H1.4821H0V8.16401V9.76476L1.47544 9.77395L2.95088 9.78317L2.96043 13.8916L2.96998 18H4.7366H6.50322V13.8828V9.76557H7.96927C8.77559 9.76557 9.43591 9.7616 9.43666 9.75677C9.53508 9.1159 9.86982 6.60802 9.85937 6.58969C9.85114 6.57515 9.0915 6.56329 8.17132 6.56329H6.4983L6.51093 5.25247C6.52333 3.97043 6.52555 3.93707 6.61246 3.73336C6.78854 3.32069 7.15903 3.07686 7.71218 3.00965C7.86394 2.99121 8.44077 2.97562 8.99403 2.97502L10 2.97393L9.99019 1.53994L9.98038 0.105954L9.4917 0.0643945C8.69045 -0.00376831 6.95262 -0.0230524 6.5784 0.032055Z" fill="white"/>
</svg>
