<svg width="74" height="92" viewBox="0 0 74 92" fill="none" xmlns="http://www.w3.org/2000/svg">
<path fill-rule="evenodd" clip-rule="evenodd" d="M34.5178 0.0613438C34.2716 0.104849 33.5867 0.226015 32.9957 0.330643C25.5124 1.65467 20.5697 7.23085 18.8413 16.2987C18.6981 17.0497 18.581 17.925 18.581 18.2437C18.581 18.6939 18.471 18.8808 18.0885 19.0805C17.4108 19.4345 16.8591 20.0617 16.5303 20.8518C16.1677 21.7228 16.1521 24.7139 16.5058 25.5633C16.7389 26.1237 16.7251 26.236 16.3267 27.0263C15.9306 27.8117 15.8953 28.0907 15.8989 30.4134C15.9034 33.2975 16.0997 33.9846 17.1945 34.9498C18.0128 35.671 18.9386 35.9741 20.0085 35.8709L20.8571 35.7889L20.9647 37.8725C21.0245 39.0283 21.236 40.5916 21.4397 41.3836C22.1392 44.102 23.8822 46.9381 25.8999 48.6407L26.818 49.4153V50.8156V52.2158L25.2512 52.6282C21.7884 53.5399 14.489 56.0414 11.866 57.2155C9.89468 58.0978 7.88557 59.4407 6.89874 60.5353C5.14837 62.4774 3.49076 66.3222 2.67315 70.3374C2.22746 72.5258 -0.13191 90.3515 0.00579118 90.4897C0.165159 90.6497 2.18663 90.894 2.30589 90.7677C2.36605 90.7038 2.91328 86.8091 3.5221 82.1125C4.1311 77.416 4.78612 72.7205 4.9779 71.6784C5.6297 68.1367 6.66183 65.2466 8.02255 63.1543C8.97912 61.683 9.47638 61.2532 11.4631 60.1798L12.8509 59.4299V64.9092V70.3883L12.3765 70.5079C11.5645 70.7124 9.7414 72.7144 9.25739 73.9329C8.83157 75.005 8.8287 75.0601 8.76908 83.0529L8.70927 91.0943L9.16033 91.5472L9.6114 92H36.9968C63.6892 92 64.3927 91.9914 64.8047 91.6565L65.2275 91.3129L65.2794 84.4206C65.3092 80.4902 65.2531 76.8824 65.1493 76.0254C64.8427 73.4967 63.8199 71.7999 61.9703 70.752L61.0195 70.2132V64.9272C61.0195 61.3878 61.0811 59.641 61.2057 59.641C61.4967 59.641 62.8005 60.3432 63.9058 61.0951C65.5445 62.2099 66.8006 64.2532 67.911 67.6101C68.7909 70.2698 68.9798 71.358 70.3298 81.5425C71.0026 86.6178 71.5833 90.8006 71.6202 90.8376C71.6925 90.9102 73.9181 90.6204 73.9989 90.5278C74.0492 90.4701 72.4166 77.912 71.7597 73.3037C71.1505 69.031 70.3552 66.3116 68.848 63.3463C67.343 60.3858 65.6791 58.912 61.8253 57.126C59.949 56.2562 53.6427 54.0657 50.1413 53.0672L47.0524 52.1863V50.849V49.5117L48.3855 48.2783C51.3521 45.5341 52.7384 42.4263 52.9116 38.1323L53.007 35.7695L54.0139 35.8546C55.4337 35.9747 56.7688 35.284 57.5268 34.0374C58.0622 33.1573 58.0649 33.1387 58.0649 30.442C58.0649 27.9424 58.0329 27.6753 57.6531 27.0103C57.2518 26.3078 57.2484 26.2621 57.5188 25.2198C58.1994 22.5964 57.5771 19.9244 56.1219 19.2218C55.5463 18.9439 55.5768 19.023 55.2817 17.0408C54.8195 13.9365 53.6379 10.5442 52.133 8.00189C51.0903 6.24012 48.3495 3.40062 46.8137 2.49097C45.3822 1.64298 43.1135 0.766231 41.4118 0.403091C40.0463 0.11168 35.5052 -0.113395 34.5178 0.0613438ZM36.3084 7.4401V12.4069L35.5757 12.2891C34.586 12.1302 33.5687 11.5853 32.6161 10.7037L31.8243 9.97094L31.8728 6.54466L31.9213 3.11837L32.6376 2.95963C33.6817 2.72845 35.0591 2.52153 35.7265 2.49582L36.3084 2.47335V7.4401ZM41.9042 3.13024L43.1129 3.4416V6.70969V9.97795L42.2939 10.736C41.4584 11.5091 40.4389 12.0478 39.3973 12.267L38.8154 12.3894V7.45826V2.5271L39.7555 2.6729C40.2724 2.75326 41.2396 2.95891 41.9042 3.13024ZM29.3249 7.35633V10.4418L29.8945 11.3329C31.3474 13.6061 34.2707 14.9632 37.6514 14.9339C40.8383 14.9064 43.5901 13.5779 45.0531 11.3606L45.6199 10.5014V7.64954V4.79781L46.0228 5.0085C46.2444 5.12463 47.1106 5.91653 47.9477 6.76847C50.1719 9.03199 51.5399 11.6685 52.431 15.4082C52.7284 16.6572 53.1245 19.4573 53.1376 20.4056C53.1431 20.8164 53.8493 21.3495 54.3878 21.3495C55.0894 21.3495 55.2894 21.7622 55.2894 23.2105C55.2894 24.7869 55.2086 24.9449 54.4016 24.9449C53.5924 24.9449 52.6659 25.2442 52.0868 25.6928C51.6801 26.0077 50.9583 26.0235 36.9216 26.0235C26.3626 26.0235 22.1488 25.9673 22.0613 25.8251C21.836 25.4592 20.469 24.9528 19.6957 24.9489C19.0404 24.9454 18.9051 24.8784 18.7556 24.4838C18.5292 23.8859 18.5348 22.8718 18.7695 22.0236C18.9368 21.4187 19.0166 21.3495 19.5465 21.3495C20.462 21.3495 20.7573 20.8752 20.9158 19.1507C21.429 13.5671 23.4179 8.9448 26.513 6.14215C27.4107 5.32939 28.9129 4.2815 29.1906 4.27449C29.2644 4.27269 29.3249 5.65946 29.3249 7.35633ZM20.4692 27.7233C20.8873 28.1429 20.9088 28.2705 20.9088 30.33C20.9088 32.2557 20.8692 32.5351 20.5507 32.8549C20.0353 33.3723 19.2621 33.3915 18.7153 32.9007C18.4477 32.6605 18.4019 32.283 18.4019 30.3233C18.4019 28.0568 18.408 28.0222 18.8737 27.6546C19.4933 27.1653 19.9324 27.1841 20.4692 27.7233ZM55.2079 27.7233C55.6242 28.1411 55.6475 28.2754 55.6475 30.2518C55.6475 31.3998 55.5686 32.4872 55.4722 32.6681C55.0203 33.5159 53.6545 33.4104 53.1915 32.4917C52.9214 31.9557 52.8895 29.2573 53.1426 28.3426C53.4343 27.2882 54.4664 26.9787 55.2079 27.7233ZM50.5852 34.1582C50.489 40.4404 50.4494 40.6964 49.179 43.2756C48.1329 45.3992 46.2853 47.2512 44.1812 48.2856C41.853 49.4301 41.0521 49.5741 37.0319 49.571C33.0312 49.568 32.0157 49.3963 29.8938 48.3633C27.8829 47.3843 25.7042 45.1812 24.691 43.1019C23.5445 40.7487 23.4224 39.8567 23.4188 33.7987L23.4157 28.5403H37.0435H50.6711L50.5852 34.1582ZM32.379 51.8338C33.5279 52.0673 34.5883 52.1101 37.7023 52.0481C41.338 51.9757 41.6815 51.9393 42.9842 51.4912C43.7504 51.2276 44.4153 51.0119 44.4615 51.0119C44.5077 51.0119 44.5455 51.4151 44.5455 51.9079C44.5455 52.8015 44.5345 52.8181 40.7559 57.6673C38.6716 60.3421 36.9119 62.4668 36.8455 62.3891C36.7792 62.3113 35.0598 60.128 33.0249 57.5373L29.3249 52.8267V51.8358V50.8449L30.1348 51.1935C30.5801 51.3851 31.5901 51.6733 32.379 51.8338ZM32.2625 60.5512C34.8138 63.8077 36.9491 66.4687 37.0077 66.4646C37.0662 66.4603 39.169 63.795 41.6804 60.5418C44.1918 57.2885 46.3272 54.626 46.4256 54.6251C46.5241 54.6244 47.7731 54.9655 49.2012 55.3831L51.7976 56.1424L51.8443 63.285L51.8913 70.4273H36.9371H21.9832L21.9839 65.5285C21.9843 62.8341 22.0366 59.6095 22.0998 58.3626L22.2151 56.0955L24.7403 55.3656C26.1293 54.9642 27.3462 54.6345 27.4447 54.6329C27.5432 54.6313 29.7111 57.2944 32.2625 60.5512ZM20.0925 72.689C20.6134 73.0712 53.4361 73.0712 53.957 72.689C54.2891 72.4453 54.3085 72.0929 54.3941 64.719L54.4836 57.0041L56.4898 57.7152L58.4963 58.4263L58.5491 65.0374C58.6087 72.4708 58.5595 72.2099 59.9759 72.5928C60.8904 72.84 61.8871 73.7434 62.3476 74.7419C62.7018 75.5098 62.7235 75.9035 62.7784 82.517L62.8361 89.4832H37.0378H11.2393V82.7744C11.2393 75.2506 11.3027 74.7474 12.3923 73.6211C12.7329 73.269 13.3985 72.8397 13.8714 72.6671C15.4414 72.094 15.3578 72.522 15.3578 65.0512V58.4568L17.4618 57.7235L19.5658 56.9902L19.6554 64.7122C19.741 72.0929 19.7603 72.4453 20.0925 72.689ZM14.1043 76.4497V77.6261L17.4618 77.5772L20.8193 77.5283V76.4497V75.3711L17.4618 75.3222L14.1043 75.2733V76.4497ZM53.1406 76.4497V77.6182H56.4533H59.766V76.4497V75.2812H56.4533H53.1406V76.4497Z" fill="#1FB29A"/>
</svg>
