<svg width="92" height="81" viewBox="0 0 92 81" fill="none" xmlns="http://www.w3.org/2000/svg">
<path fill-rule="evenodd" clip-rule="evenodd" d="M39.4012 0.100072C38.8938 0.302799 38.6411 1.20954 38.6411 2.82707V4.4421L34.5523 4.44317C32.1623 4.44371 30.1649 4.52491 29.7447 4.63876C28.6505 4.935 27.2515 6.44296 26.963 7.63737C26.4781 9.64447 27.3937 11.6162 29.24 12.5406L29.8135 12.828L29.8243 20.3904C29.8304 24.5499 29.91 28.3446 30.0015 28.8234C30.7754 32.8752 33.4368 36.3619 37.149 38.1879L38.6411 38.9219V40.1522V41.3826H33.8128C29.2001 41.3826 28.9632 41.3992 28.5108 41.7526C27.8917 42.236 27.878 43.0253 28.4785 43.6214L28.9195 44.0595H44.2045H59.4893V45.0144C59.4893 45.9645 59.485 45.9718 58.6094 46.5122C56.9246 47.5522 56.1646 49.8001 56.8741 51.6451C57.186 52.4559 58.7548 54.053 59.2392 54.053C59.4252 54.053 59.4893 54.328 59.4893 55.1238V56.1945H38.5512H17.6132V50.127V44.0595H21.008C24.7882 44.0595 25.0536 43.9852 25.2711 42.8667C25.3602 42.4084 25.2923 42.21 24.9203 41.8405L24.4591 41.3826H20.2156C17.3585 41.3826 15.8457 41.4497 15.5853 41.588C15.3727 41.7012 13.9759 42.705 12.4814 43.8187L9.76416 45.844H5.25447H0.744965L0.372572 46.3143C0.0255211 46.7522 0 47.0153 0 50.1591C0 53.5043 0.00395394 53.5377 0.441227 53.9719L0.882275 54.41H5.34847H9.81484L12.8254 56.6407L15.8362 58.8714H28.7662H41.6964V61.3778C41.6964 63.8012 41.711 63.8989 42.1377 64.3223C42.5733 64.7551 42.6183 64.7604 45.8221 64.7604H49.0652L49.0595 65.8758C49.0535 67.0356 48.8859 67.4148 48.2234 67.7651C47.9392 67.9154 45.2288 67.9727 38.4154 67.9727C27.8322 67.9727 27.9465 67.9604 26.6341 69.2504C24.6349 71.2159 25.0051 74.4396 27.3989 75.9093L28.2786 76.4494L46.8494 76.4965L65.4203 76.5436V78.0314C65.4203 79.6796 65.6494 80.5612 66.1462 80.8253C66.3374 80.9268 68.5017 81 71.3151 81C75.9397 81 76.1765 80.9836 76.6289 80.6301L77.1025 80.2603V75.2962C77.1025 70.6758 77.0788 70.3029 76.7592 69.9109L76.4157 69.4895L71.4765 69.4369L66.5373 69.3844L66.031 69.8168C65.5492 70.2284 65.5211 70.337 65.4516 72.0556L65.3784 73.8617H47.2333H29.0879L28.5626 73.3401C27.9041 72.6862 27.8712 71.9319 28.4709 71.2395L28.9044 70.7387L38.8645 70.6495L48.8244 70.5603L49.704 70.0203C50.2485 69.6859 50.7906 69.1476 51.1274 68.6069C51.5961 67.854 51.6801 67.5285 51.7347 66.247L51.798 64.7604H55.0846C59.4485 64.7604 59.2002 64.955 59.278 61.4752L59.3362 58.8714L71.5892 58.8683C81.5379 58.8658 84.071 58.8169 85.059 58.6092C89.8163 57.6083 92.9392 52.6841 91.7444 48.0676C90.8913 44.7708 88.2903 42.2515 85.0466 41.5798C84.3873 41.4433 78.4537 41.3826 65.7709 41.3826H47.4477V40.1663V38.9499L49.0203 38.1627C50.2717 37.5364 50.927 37.0467 52.2289 35.7653C54.0319 33.9908 54.923 32.5965 55.6908 30.3481L56.1581 28.9799L56.2162 20.9033L56.2744 12.8267L56.9606 12.4791C58.3698 11.7652 59.196 10.3772 59.1953 8.72506C59.1946 7.32203 58.7569 6.37015 57.6996 5.47144C56.5972 4.53454 56.0422 4.4421 51.5156 4.4421H47.4477V3.05781C47.4477 1.46473 47.2383 0.578871 46.7805 0.234093C46.5352 0.0492122 45.6513 -0.00593094 43.0444 0.000493497C41.1663 0.00513337 39.5268 0.0499261 39.4012 0.100072ZM44.5721 3.54982V4.4421H42.9545H41.337V3.54982V2.65753H42.9545H44.5721V3.54982ZM55.9466 7.47801C56.8535 8.1863 56.6524 9.76493 55.6049 10.1604C55.3328 10.263 50.2532 10.3312 42.8631 10.3312H30.5736L30.1081 9.92964C29.8304 9.69015 29.6 9.2615 29.5367 8.86711C29.4452 8.29605 29.5053 8.13241 29.9783 7.66253L30.5258 7.11895H43.0063C55.2399 7.11895 55.496 7.12609 55.9466 7.47801ZM53.5584 14.7034V16.3987H43.0444H32.5304V14.7034V13.008H43.0444H53.5584V14.7034ZM53.5557 23.4031C53.5537 26.585 53.4829 28.026 53.2881 28.8468C52.5821 31.8193 50.4105 34.4903 47.6274 35.8085C45.8713 36.6403 44.6936 36.9223 42.9907 36.9185C38.2928 36.9084 33.9765 33.5475 32.804 28.987C32.5953 28.1756 32.5304 26.8748 32.5304 23.4995V19.0755H43.0444H53.5584L53.5557 23.4031ZM44.5721 40.4903V41.3826H42.9545H41.337V40.4903V39.5981H42.9545H44.5721V40.4903ZM85.7559 44.6213C87.3045 45.3422 88.5602 46.7465 89.0433 48.2978C89.1662 48.6926 89.1423 48.6993 87.637 48.6993C85.9254 48.6993 85.3235 48.8912 85.0302 49.5304C84.7496 50.142 84.7782 50.3695 85.2033 50.906C85.5609 51.3575 85.6465 51.3762 87.36 51.3762C89.346 51.3762 89.3418 51.3728 88.7987 52.5606C88.3825 53.4706 87.3045 54.6764 86.4004 55.243C84.9152 56.174 84.5128 56.2011 72.9587 56.1513L62.2751 56.1053L62.221 55.1766C62.1678 54.2624 62.1777 54.2426 62.85 53.8992C63.6538 53.4888 64.3518 52.7808 64.8096 51.9116C65.2841 51.0109 65.2558 49.1905 64.7526 48.2411C64.329 47.4414 63.1575 46.3048 62.5646 46.118C62.2397 46.0155 62.1852 45.8587 62.1852 45.0239V44.0491L73.463 44.0989L84.7408 44.1487L85.7559 44.6213ZM14.9173 50.1375C14.9173 53.8095 14.87 54.7601 14.6926 54.6557C14.5691 54.5831 13.8412 54.0527 13.0751 53.4772L11.6822 52.4309L11.6899 50.0744L11.6975 47.7178L13.1727 46.6141C13.9839 46.007 14.7084 45.5052 14.7825 45.4987C14.8565 45.4923 14.9173 47.5799 14.9173 50.1375ZM4.49315 50.127V51.7331H3.59452H2.69589V50.127V48.5209H3.59452H4.49315V50.127ZM8.9863 50.127V51.7331H8.08767H7.18904V50.127V48.5209H8.08767H8.9863V50.127ZM62.0414 49.0645C62.5129 49.5326 62.5742 49.6987 62.4827 50.2585C62.4243 50.6161 62.2275 51.0566 62.0454 51.2374C61.8633 51.4181 61.4198 51.6135 61.0596 51.6715C60.4958 51.7624 60.3285 51.7015 59.8571 51.2334C59.1385 50.52 59.1101 49.6598 59.7834 48.9913C60.4566 48.3228 61.3229 48.351 62.0414 49.0645ZM21.657 48.9055C20.7607 49.3921 20.5801 50.3501 21.2641 50.9882C21.6708 51.3675 21.7929 51.3762 26.7179 51.3762C32.2522 51.3762 32.1613 51.3939 32.4449 50.2653C32.5439 49.8718 32.4636 49.6762 32.0234 49.2392L31.4797 48.6993L26.7481 48.7047C23.6719 48.7083 21.8906 48.7786 21.657 48.9055ZM56.6137 60.4775V62.0836H50.503H44.3923V60.4775V58.8714H50.503H56.6137V60.4775ZM74.4066 75.2002V78.3232H71.2614H68.1162V75.3192C68.1162 73.6669 68.1701 72.2615 68.2361 72.1962C68.3018 72.1307 69.7172 72.0772 71.3813 72.0772H74.4066V75.2002Z" fill="#1FB29A"/>
</svg>
