<svg width="92" height="92" viewBox="0 0 92 92" fill="none" xmlns="http://www.w3.org/2000/svg">
<path fill-rule="evenodd" clip-rule="evenodd" d="M65.7781 0.190971C65.5405 0.314467 65.1766 0.643788 64.9693 0.922956C64.5986 1.42215 64.5919 1.59346 64.5434 11.6636L64.4942 21.8969L63.9144 21.9012C62.9748 21.9084 61.7949 22.24 60.5788 22.8386C59.733 23.2551 59.0799 23.7883 58.0375 24.9129L56.6346 26.4265L48.8419 20.2913C44.1521 16.599 40.7953 14.0798 40.4116 13.9642C39.1187 13.5754 39.0181 13.6764 32.6923 21.7139C29.4798 25.7957 26.7531 29.3064 26.633 29.5157C26.3295 30.0449 26.3494 31.0893 26.6718 31.5497C26.8203 31.7616 30.4618 34.7054 34.7641 38.0915C39.0664 41.4778 42.5625 44.3204 42.5331 44.4086C42.5038 44.4967 40.0666 47.6379 37.1174 51.3888L31.7552 58.2085H29.0786H26.4021V48.226C26.4021 37.277 26.4028 37.2853 25.3468 36.739C24.8719 36.4934 23.5364 36.4575 14.891 36.4575H4.9794L4.36835 37.0687L3.7573 37.6799V40.7259C3.7573 44.1536 3.83278 44.3669 5.04661 44.3669C6.1616 44.3669 6.35354 43.9519 6.42669 41.3822L6.49013 39.1539H8.5384H10.5867L10.5878 41.356C10.5888 43.8512 10.7545 44.6508 11.4389 45.4644C12.1587 46.32 12.8389 46.5241 14.9724 46.5241C17.0419 46.5241 17.6109 46.3795 18.3817 45.6587C19.2456 44.8509 19.393 44.2575 19.393 41.5864V39.1539H21.5496H23.7063V48.6812V58.2085H15.0899H6.47359L6.41842 53.1038C6.36738 48.3805 6.33772 47.971 6.02088 47.6211C5.57984 47.1342 4.47582 47.1065 4.05474 47.5719C3.79252 47.8617 3.7573 48.5097 3.7573 53.0361V58.1717L2.21386 58.2349C0.849424 58.291 0.630345 58.3476 0.326797 58.7228C-0.11837 59.2725 -0.108665 59.8407 0.355732 60.4312L0.728113 60.9049H16.4465C33.6953 60.9049 32.8138 60.9606 33.8781 59.8028C34.1843 59.4697 40.226 51.8259 47.3041 42.8167C54.3824 33.8074 60.4398 26.2111 60.7655 25.9357C61.0912 25.6605 61.7216 25.2659 62.1664 25.0592C62.9599 24.6902 63.242 24.6815 77.1441 24.5933L91.3131 24.5034L91.6566 24.079C92.1015 23.5293 92.0918 22.9611 91.6274 22.3705C91.2657 21.9105 91.1986 21.8969 89.2911 21.8969H87.3273L87.3262 12.055C87.3257 6.09521 87.2548 1.95964 87.1468 1.57063C87.0487 1.21722 86.7595 0.731871 86.5045 0.49207L86.0405 0.0559713L76.1253 0.0112109C68.4769 -0.0233031 66.1115 0.0178621 65.7781 0.190971ZM71.5158 5.13421C71.5203 7.96166 71.7568 8.7713 72.7938 9.5112C73.3422 9.90235 73.6119 9.94837 75.6702 10.0016C77.6752 10.0535 78.0262 10.0172 78.6626 9.69257C79.0591 9.49034 79.5734 9.01901 79.8058 8.64511C80.19 8.02691 80.2339 7.72545 80.2898 5.31397L80.3511 2.6625H82.4928H84.6347L84.5882 12.2347L84.5416 21.807H75.915H67.2885L67.2419 12.2347L67.1954 2.6625H69.3536H71.5119L71.5158 5.13421ZM77.5828 4.95445L77.5325 7.24639H75.915H74.2975L74.2472 4.95445L74.1969 2.6625H75.915H77.6332L77.5828 4.95445ZM69.2896 13.8208C68.6962 14.2876 68.6403 15.2497 69.1755 15.785C69.504 16.1136 69.7745 16.1445 72.3206 16.1445C74.8667 16.1445 75.1372 16.1136 75.4657 15.785C76.0009 15.2497 75.945 14.2876 75.3516 13.8208C74.923 13.4834 74.6358 13.4481 72.3206 13.4481C70.0055 13.4481 69.7183 13.4834 69.2896 13.8208ZM47.5172 22.6822C51.5245 25.8331 54.8412 28.4729 54.8879 28.5482C54.9345 28.6235 52.5794 31.7276 49.6546 35.446L44.3367 42.2064L43.8612 41.8276C43.5997 41.6193 40.2519 38.9826 36.4215 35.9682C32.5913 32.9538 29.4573 30.4222 29.4573 30.3424C29.4573 30.1668 31.7588 27.2199 31.9497 27.1513C32.0237 27.1247 32.9575 27.79 34.0245 28.6298C36.0389 30.2148 36.6495 30.4797 37.8434 30.2858C38.7771 30.1342 39.2222 29.7767 40.5205 28.1356C41.8634 26.4383 42.147 25.6722 41.8489 24.5483C41.5956 23.5942 41.2948 23.2613 39.1238 21.5334L37.3781 20.144L38.6583 18.4983C39.3624 17.5932 40.0044 16.8754 40.0849 16.9031C40.1654 16.9308 43.51 19.5314 47.5172 22.6822ZM69.1755 18.1219C68.7214 18.5762 68.7142 19.3944 69.1597 19.9445C69.494 20.3574 69.5783 20.3689 72.2859 20.3689C74.77 20.3689 75.1092 20.3322 75.4469 20.0265C75.9406 19.5796 75.9501 18.6064 75.4657 18.1219C75.1372 17.7933 74.8667 17.7624 72.3206 17.7624C69.7745 17.7624 69.504 17.7933 69.1755 18.1219ZM37.6833 23.8311C38.7267 24.66 39.3028 25.2345 39.2244 25.3682C38.8736 25.9674 37.4692 27.6492 37.3197 27.6492C37.2252 27.6492 36.3525 27.0278 35.3802 26.2681L33.6126 24.8872L34.3419 23.9762C34.7433 23.4752 35.2033 22.8917 35.3645 22.6794C35.71 22.2246 35.5793 22.1597 37.6833 23.8311ZM63.0217 27.0062C61.984 27.3767 61.5027 27.759 61.0266 28.5917C60.4253 29.6433 60.3157 30.4592 60.6322 31.5254C60.9217 32.5008 61.9004 33.6058 62.7622 33.93C63.4672 34.1956 64.9418 34.1679 65.6318 33.8761C66.9394 33.3234 67.7915 32.0077 67.8019 30.5254C67.814 28.7963 66.7685 27.3959 65.1318 26.9489C64.2181 26.6992 63.854 26.7091 63.0217 27.0062ZM71.5119 28.6722C70.9062 28.9023 70.6133 29.3364 70.6133 30.0037C70.6133 31.2577 70.532 31.2444 78.2016 31.2444C84.7513 31.2444 85.0037 31.2317 85.3503 30.8849C85.8347 30.4004 85.8252 29.4272 85.3317 28.9803C84.9758 28.658 84.5653 28.6359 78.3675 28.6039C74.7452 28.5852 71.6601 28.616 71.5119 28.6722ZM64.8622 29.8063C65.2948 30.239 65.3117 30.4966 64.9418 31.0246C64.2941 31.9498 62.7365 31.1245 63.2589 30.133C63.6709 29.3508 64.2823 29.2263 64.8622 29.8063ZM42.3576 31.3792C42.1014 31.651 41.319 32.6016 40.6194 33.4914C39.1613 35.3458 38.9983 35.9813 39.8155 36.6241C40.3942 37.0795 40.9806 37.1001 41.4605 36.6822C42.248 35.9962 44.7335 32.6196 44.7335 32.2356C44.7335 32.0138 44.5659 31.619 44.361 31.3586C43.8463 30.7041 42.9861 30.7129 42.3576 31.3792ZM46.0814 33.6072C45.6248 33.8377 42.9471 37.245 42.6925 37.9197C42.5331 38.3421 42.5631 38.5107 42.8713 38.9254C43.2548 39.4415 44.125 39.672 44.6248 39.3897C44.7668 39.3094 45.5773 38.3608 46.4258 37.2815C48.1725 35.0597 48.3574 34.4528 47.4949 33.7742C46.9793 33.3685 46.6353 33.3278 46.0814 33.6072ZM66.5696 35.6336C66.273 35.7661 65.8192 36.1068 65.5612 36.3906C65.3029 36.6746 59.4088 44.1467 52.4631 52.9954C45.5175 61.8442 39.5013 69.4346 39.0941 69.8631C38.6867 70.2916 37.9491 70.8579 37.4549 71.1214L36.5563 71.6007L18.6132 71.6905L0.670243 71.7804L0.326617 72.2048C-0.11837 72.7545 -0.108665 73.3228 0.355732 73.9133L0.728113 74.387H3.41098H6.09366L6.10157 81.8021C6.10984 89.5819 6.15585 90.0912 6.93026 90.9621C7.11268 91.1674 7.58534 91.4838 7.98073 91.6654C8.67139 91.9826 10.2826 91.9958 49.1396 91.9995C88.1887 92.0033 89.6007 91.992 90.2012 91.67C90.543 91.4865 91.0674 91.0344 91.3665 90.6652L91.9101 89.9938L91.9655 86.1976C92.0252 82.0969 91.959 81.7235 91.1196 81.4309C90.5658 81.2378 89.8385 81.4598 89.5752 81.9022C89.4755 82.0696 89.3536 83.7839 89.3042 85.7119L89.2143 89.2172L77.4542 89.2634C68.1648 89.3001 65.6636 89.2621 65.5504 89.0836C65.4715 88.9594 65.4057 80.556 65.4041 70.4092C65.4019 55.0629 65.4425 51.9268 65.646 51.7578C65.8235 51.6104 69.0878 51.5674 77.5525 51.601L89.2143 51.6472L89.3042 64.7191C89.3872 76.8033 89.4176 77.8184 89.7068 78.1562C90.1386 78.6604 91.1514 78.6457 91.6336 78.128C91.9953 77.7395 92 77.5696 92 64.6402C92 53.2631 91.9637 51.459 91.7236 50.884C91.0816 49.3472 90.118 48.8705 87.6418 48.8649L85.8895 48.861V43.4681V38.0753H88.5035C91.0394 38.0753 91.1309 38.0622 91.5588 37.634C91.8014 37.3913 92 36.9833 92 36.7271C92 36.471 91.8014 36.0629 91.5588 35.8202L91.1178 35.3789L79.1132 35.3859C69.4839 35.3917 67.002 35.4406 66.5696 35.6336ZM57.8391 35.7891C57.583 35.9869 53.4875 41.1444 42.9906 54.4876C39.1096 59.4212 38.9223 59.7661 39.7014 60.5454C39.9215 60.7656 40.3004 60.9049 40.6791 60.9049C41.4398 60.9049 40.5098 62.0079 51.2768 48.3377C58.5993 39.0406 59.8301 37.3935 59.8301 36.8909C59.8301 35.8981 58.588 35.2107 57.8391 35.7891ZM83.1937 43.4681V48.861H74.2645C65.5324 48.861 65.3178 48.8694 64.5477 49.2422C64.0734 49.472 63.5684 49.9135 63.2778 50.3526L62.7954 51.0815L62.7473 70.1944L62.6993 89.3071H35.8376H8.97602L8.87771 88.9026C8.82362 88.6801 8.80187 85.3434 8.82937 81.4875L8.87933 74.4768L22.8975 74.387L36.9157 74.2971L37.9256 73.8885C40.2073 72.9654 40.0109 73.1915 54.2523 55.0817L67.626 38.0753H75.4098H83.1937V43.4681ZM16.6576 41.4458L16.6073 43.7378H14.9898H13.3723L13.322 41.4458L13.2717 39.1539H14.9898H16.7079L16.6576 41.4458ZM8.28158 50.3555C7.76327 50.9075 7.78358 51.646 8.33208 52.1946C8.75982 52.6226 8.85201 52.6359 11.3773 52.6359C13.8245 52.6359 14.0084 52.6117 14.4314 52.2315C15.0815 51.6472 15.1246 50.8833 14.5405 50.299C14.2124 49.9708 13.9415 49.9395 11.4267 49.9395C8.78012 49.9395 8.6572 49.9557 8.28158 50.3555ZM68.7735 54.1729C67.7893 54.7125 67.7378 55.0303 67.7378 60.5454C67.7378 66.1043 67.787 66.3946 68.8202 66.929C69.2866 67.1703 70.453 67.2003 77.6384 67.1568L85.9192 67.1067L86.4436 66.5196L86.9678 65.9324V60.5454V55.1583L86.4436 54.5712L85.9192 53.9841L77.5924 53.9435C70.4726 53.9088 69.194 53.9421 68.7735 54.1729ZM8.33208 54.5153C7.76596 55.0814 7.75536 55.8614 8.30674 56.3796C8.69619 56.7454 8.89712 56.7704 11.4518 56.7704C13.9415 56.7704 14.2127 56.7388 14.5405 56.4109C15.1246 55.8267 15.0815 55.0627 14.4314 54.4785C14.0084 54.0983 13.8245 54.074 11.3773 54.074C8.85201 54.074 8.75982 54.0873 8.33208 54.5153ZM84.272 60.5454V64.5001H77.3528H70.4336V60.5454V56.5907H77.3528H84.272V60.5454ZM33.1416 62.462C30.7436 63.7264 30.3654 66.8038 32.3896 68.5814C33.8173 69.8352 35.7605 69.811 37.1874 68.5214C39.0635 66.826 38.7401 63.8136 36.5487 62.5722C35.6819 62.0811 33.969 62.0257 33.1416 62.462ZM35.5615 65.2073C35.8717 65.787 35.7723 66.2731 35.2776 66.5974C34.8563 66.8735 34.7583 66.878 34.334 66.6405C33.8037 66.3438 33.6491 65.7822 33.9453 65.2285C34.2133 64.7277 35.2973 64.7135 35.5615 65.2073ZM6.27338 65.3989C5.73818 65.9342 5.79407 66.8963 6.38751 67.3632C6.85352 67.7299 7.01797 67.7358 16.7295 67.7358H26.5981L27.0392 67.2945C27.6053 66.7284 27.6159 65.9485 27.0645 65.4302L26.6485 65.0394H16.6407C6.87239 65.0394 6.6242 65.048 6.27338 65.3989ZM76.3774 70.5464C76.0583 70.9523 76.0049 71.2717 76.0049 72.779V74.5381L75.4824 74.653C74.7021 74.8243 73.3492 75.8597 72.6856 76.7932C71.9166 77.875 71.6339 78.9448 71.7207 80.4447C71.9951 85.1853 77.6504 87.4606 81.2662 84.2851C81.6303 83.9653 82.186 83.1801 82.5011 82.54C83.9647 79.5664 82.6562 76.1202 79.54 74.7414L78.7007 74.3701V72.5809C78.7007 71.0314 78.6525 70.7436 78.3413 70.4322C77.806 69.8969 76.8442 69.9528 76.3774 70.5464ZM76.0049 78.9789C76.0049 80.3703 76.0464 80.5567 76.4461 80.9563C76.6887 81.199 77.0967 81.3976 77.3528 81.3976C77.6089 81.3976 78.0169 81.199 78.2595 80.9563C78.6592 80.5567 78.7007 80.3703 78.7007 78.9789C78.7007 78.1341 78.7753 77.4429 78.8666 77.4429C79.2435 77.4429 80.1041 78.5543 80.2855 79.2754C80.789 81.2759 79.4156 83.0455 77.3591 83.0455C76.1929 83.0455 75.162 82.3863 74.5896 81.2747C74.3292 80.769 74.329 79.3307 74.5891 78.8242C74.839 78.3377 75.6614 77.4429 75.8588 77.4429C75.9391 77.4429 76.0049 78.1341 76.0049 78.9789Z" fill="#1FB29A"/>
</svg>
