<svg width="86" height="92" viewBox="0 0 86 92" fill="none" xmlns="http://www.w3.org/2000/svg">
<path fill-rule="evenodd" clip-rule="evenodd" d="M24.213 0.367972C23.9965 0.569596 23.8194 0.893345 23.8194 1.08741C23.8194 1.42088 23.683 1.44012 21.3127 1.44012C18.922 1.44012 18.7827 1.46027 18.3016 1.87413L17.7972 2.30831V5.81218C17.7972 10.3472 17.5665 10.047 21.1015 10.1137C23.6657 10.1621 23.731 10.1731 23.7866 10.5645C23.8178 10.7851 24.0558 11.1326 24.3153 11.3368C24.7699 11.6945 24.9662 11.7062 29.7125 11.6551L34.6378 11.6023L34.9813 11.1776C35.2675 10.8236 35.3247 10.4571 35.3247 8.97431V7.19566H49.8941H64.4637L64.9049 7.63722C65.3942 8.12662 65.5047 9.22252 65.1157 9.72936C64.5881 10.417 64.3492 10.4332 54.7276 10.4332C47.9979 10.4332 45.1419 10.4936 44.6303 10.647C44.238 10.7646 43.5281 11.2107 43.0526 11.6384C41.7628 12.7987 41.6166 13.3931 41.6166 17.4797V20.8651H40.6426C40.1069 20.8651 39.5376 20.9154 39.3776 20.9768C38.7486 21.2183 38.5605 22.0187 38.5605 24.4533V26.8005H33.9849C30.9671 26.8005 29.2575 26.8697 28.9636 27.0037C28.2835 27.3136 28.0379 28.0714 28.394 28.7604C28.5526 29.0674 28.7005 29.3376 28.7228 29.361C28.745 29.3845 40.2908 29.4452 54.3803 29.4959L79.9974 29.5883L80.7287 29.9801C81.131 30.1954 81.7546 30.6979 82.1147 31.0966C83.4058 32.5263 83.3344 30.767 83.2811 59.906L83.2332 86.0646L82.8446 86.784C82.3864 87.6321 81.5049 88.4997 80.6266 88.9672C80.0188 89.2908 78.737 89.3021 42.9649 89.3021C7.19275 89.3021 5.911 89.2908 5.3032 88.9672C4.42484 88.4997 3.54343 87.6321 3.0852 86.784L2.69654 86.0646V59.4452C2.69654 33.8289 2.70913 32.8021 3.03127 32.1963C3.49849 31.3175 4.3657 30.4356 5.21331 29.9772C5.91981 29.5952 6.09292 29.5874 15.1182 29.5372C24.026 29.4876 24.316 29.4752 24.691 29.1255C25.259 28.596 25.2127 27.6521 24.5946 27.1658C24.1148 26.7883 24.0456 26.7859 14.8421 26.8379C5.70552 26.8897 5.55865 26.8962 4.58412 27.2947C2.69349 28.0678 0.975249 29.8468 0.329697 31.6995C0.0156399 32.6012 0 33.9197 0 59.5351C0 84.8786 0.0183366 86.4709 0.31945 87.2337C1.12356 89.2704 2.87218 90.9944 4.82573 91.6764C5.7066 91.984 7.60478 92 43.0548 92H80.3569L81.3969 91.58C82.6068 91.0915 84.3316 89.5803 85.0191 88.4067C86.0734 86.6069 86.031 87.9047 85.9781 58.9776L85.9298 32.4661L85.3295 31.1851C84.3439 29.0817 82.4214 27.4926 80.2595 26.994C79.7437 26.8751 73.738 26.8077 63.4137 26.8048L47.3692 26.8005V24.6859C47.3692 21.3637 47.1131 20.8805 45.3468 20.8708L44.3132 20.8651V17.5477C44.3132 14.3005 44.3223 14.2196 44.7469 13.7257L45.1806 13.221L55.143 13.1311L65.1053 13.0411L65.9898 12.4951C67.2925 11.6907 68.0427 10.363 68.0427 8.86154C68.0427 6.98451 67.239 5.6762 65.6232 4.92348L64.717 4.50135L50.0208 4.49955L35.3247 4.49775V2.62235C35.3247 -0.140854 35.6411 0.00123565 29.4919 0.00123565C24.8236 0.00123565 24.5889 0.017603 24.213 0.367972ZM32.6282 5.84671V8.99427H29.5721H26.516V5.84671V2.69915H29.5721H32.6282V5.84671ZM23.7815 5.80174L23.8335 7.37553H22.1187H20.4038V5.87675C20.4038 5.05226 20.4606 4.32095 20.5302 4.25152C20.5996 4.18192 21.348 4.14828 22.1931 4.17652L23.7296 4.22796L23.7815 5.80174ZM44.4929 25.1817V26.8005H42.875H41.2571V25.1817V23.563H42.875H44.4929V25.1817ZM6.60383 32.9224C5.95504 33.1832 5.84251 33.8185 5.84251 37.2198C5.84251 40.1864 5.86983 40.4562 6.21517 40.8953L6.58765 41.3692H12.3858H18.1839L18.5749 40.953C18.7899 40.724 18.9657 40.356 18.9657 40.1355C18.9657 39.6389 17.6023 34.176 17.3282 33.574C17.2183 33.3327 16.9312 33.0454 16.6903 32.9355C16.1535 32.6909 7.20893 32.6791 6.60383 32.9224ZM69.1648 32.9219C68.632 33.1361 68.5373 33.3859 67.6864 36.8196C66.8604 40.1526 66.8291 40.5147 67.3236 41.0095C67.6684 41.3545 67.9228 41.3692 73.5126 41.3692H79.3421L79.7146 40.8953C80.06 40.4561 80.0873 40.1864 80.0873 37.2166C80.0873 33.7998 79.9837 33.2701 79.2501 32.9355C78.7138 32.6911 69.7691 32.6791 69.1648 32.9219ZM15.3841 36.6029C15.5429 37.1964 15.7277 37.9047 15.7947 38.1767L15.9164 38.6713H12.2277H8.53905V37.0484V35.4257L11.8173 35.4746L15.0956 35.5237L15.3841 36.6029ZM77.3907 37.0525V38.6713H73.6862C70.7973 38.6713 70.0004 38.6218 70.0664 38.4465C70.113 38.3229 70.2981 37.5943 70.4781 36.8277L70.8051 35.4338H74.0979H77.3907V37.0525ZM55.4145 36.1755C54.9451 36.2457 54.2979 36.468 53.9763 36.6694C53.6547 36.8709 51.653 38.7797 49.5281 40.9111L45.6645 44.7866H26.1261H6.58765L6.21517 45.2605C5.84323 45.7333 5.84251 45.776 5.84251 65.5029V85.2716L6.28384 85.713L6.72499 86.1545H42.7684C68.8012 86.1545 78.9337 86.0991 79.2501 85.9549C79.491 85.845 79.7779 85.5579 79.8877 85.3169C80.0301 85.0043 80.0873 79.2675 80.0873 65.3065C80.0873 45.7783 80.0864 45.7333 79.7146 45.2605L79.3421 44.7866H68.7487C62.9224 44.7866 58.1554 44.7367 58.1554 44.6758C58.1554 44.6148 58.5834 44.1022 59.1066 43.5369C59.6612 42.9376 60.1483 42.2065 60.2751 41.7832C61.2446 38.5456 58.7569 35.6755 55.4145 36.1755ZM57.5291 39.4494C58.0398 40.1789 57.8696 40.9526 56.9959 41.8743L56.1959 42.7182L55.1083 41.6446C54.51 41.0543 54.0207 40.4832 54.0207 40.3758C54.0207 40.0456 55.193 39.0231 55.7454 38.8717C56.3949 38.6938 57.1775 38.9472 57.5291 39.4494ZM44.7193 54.1823L35.15 63.7565L33.9766 62.5929L32.8032 61.4294L42.3772 51.8495L51.951 42.2696L53.1197 43.4389L54.2886 44.6081L44.7193 54.1823ZM34.7377 55.7176L26.516 63.9509V66.0535C26.516 68.133 26.5101 68.1627 25.9767 68.7704C25.332 69.5052 25.2795 70.2253 25.8282 70.8099C26.3709 71.3878 27.0887 71.3437 27.8368 70.6865C28.442 70.1548 28.4807 70.1469 30.4914 70.1469H32.5316L43.8623 58.8157L55.193 47.4845H66.292H77.3907V65.4705V83.4566H42.9649H8.53905V65.4705V47.4845H25.7493H42.9597L34.7377 55.7176ZM12.1326 51.2146C11.7801 51.6632 11.7508 51.8824 11.8051 53.6591C11.8601 55.4564 11.8984 55.6379 12.2892 55.9541C12.8639 56.4194 13.6035 56.3894 14.0806 55.8814C14.3873 55.5548 14.4714 55.2449 14.4714 54.4426V53.4199H15.3618C16.453 53.4199 17.0653 53.1591 17.328 52.5823C17.6086 51.9659 17.58 51.7366 17.1549 51.1959C16.7899 50.7315 16.7394 50.722 14.6512 50.722C12.5425 50.722 12.5161 50.7272 12.1326 51.2146ZM68.7749 51.1959C67.8522 52.3695 68.6908 53.4199 70.5505 53.4199H71.4583V54.499C71.4583 55.3384 71.5382 55.6581 71.8179 55.9379C72.2722 56.3924 73.0905 56.3996 73.6406 55.9538C74.042 55.6286 74.065 55.4982 74.065 53.5445C74.065 50.7146 74.0724 50.722 71.2638 50.722C69.1916 50.722 69.1397 50.7319 68.7749 51.1959ZM32.1782 64.5707L33.2449 65.6493L32.359 66.5492C31.4823 67.4397 31.4614 67.449 30.3429 67.449H29.2125V66.2418C29.2125 65.0655 29.2319 65.0148 29.969 64.2633C30.3852 63.8392 30.8123 63.4921 30.9185 63.4921C31.0246 63.4921 31.5914 63.9775 32.1782 64.5707ZM12.5594 74.674C11.9635 74.9627 11.7749 75.6041 11.7749 77.3413C11.7749 79.9258 12.0681 80.2191 14.6512 80.2191C16.4309 80.2191 17.0321 80.031 17.328 79.3815C17.6086 78.7651 17.58 78.5358 17.1549 77.9951C16.8214 77.571 16.661 77.5212 15.6268 77.5212H14.4714V76.3652C14.4714 75.3305 14.4216 75.1701 13.9977 74.8364C13.4793 74.4283 13.1446 74.3906 12.5594 74.674ZM71.9405 74.8298C71.5432 75.1424 71.4673 75.3593 71.4219 76.3136L71.3685 77.4313L70.2514 77.4847C69.2975 77.5302 69.0807 77.6061 68.7683 78.0036C68.3102 78.5862 68.3025 79.1567 68.7456 79.7045C69.062 80.0961 69.2425 80.1339 71.0549 80.1893C72.9348 80.2468 73.0439 80.2297 73.543 79.8002C74.0612 79.3542 74.065 79.3364 74.065 77.3413C74.065 75.3623 74.0573 75.3251 73.5606 74.8976C72.9447 74.3677 72.5487 74.351 71.9405 74.8298Z" fill="#1FB29A"/>
</svg>
