<svg width="20" height="182" viewBox="0 0 20 182" fill="none" xmlns="http://www.w3.org/2000/svg">
<path d="M12 145.064L3.504 145.064L3.504 139.964L4.824 139.964L4.824 143.552L12 143.552L12 145.064ZM9.096 136.031C8.208 136.031 7.484 135.731 6.924 135.131C6.356 134.531 6.072 133.787 6.072 132.899C6.072 132.011 6.356 131.267 6.924 130.667C7.484 130.067 8.208 129.767 9.096 129.767C9.992 129.767 10.728 130.071 11.304 130.679C11.88 131.279 12.168 132.019 12.168 132.899C12.168 133.779 11.88 134.523 11.304 135.131C10.728 135.731 9.992 136.031 9.096 136.031ZM7.8 134.135C8.168 134.423 8.6 134.567 9.096 134.567C9.592 134.567 10.028 134.423 10.404 134.135C10.78 133.847 10.968 133.435 10.968 132.899C10.968 132.363 10.78 131.951 10.404 131.663C10.028 131.375 9.592 131.231 9.096 131.231C8.6 131.231 8.168 131.375 7.8 131.663C7.432 131.951 7.248 132.363 7.248 132.899C7.248 133.435 7.432 133.847 7.8 134.135ZM6.24 123.571L6.24 122.191L7.044 122.191L7.044 122.155C6.78 121.987 6.552 121.735 6.36 121.399C6.168 121.055 6.072 120.643 6.072 120.163C6.072 119.347 6.36 118.679 6.936 118.159C7.512 117.631 8.232 117.367 9.096 117.367C9.96 117.367 10.688 117.627 11.28 118.147C11.872 118.659 12.168 119.343 12.168 120.199C12.168 120.599 12.084 120.971 11.916 121.315C11.748 121.659 11.52 121.923 11.232 122.107L11.232 122.131L14.88 122.131L14.88 123.571L6.24 123.571ZM10.404 119.275C10.028 118.979 9.592 118.831 9.096 118.831C8.6 118.831 8.168 118.979 7.8 119.275C7.432 119.563 7.248 119.967 7.248 120.487C7.248 120.991 7.44 121.399 7.824 121.711C8.208 122.023 8.64 122.179 9.12 122.179C9.6 122.179 10.028 122.023 10.404 121.711C10.78 121.399 10.968 120.991 10.968 120.487C10.968 119.967 10.78 119.563 10.404 119.275ZM12 110.094L7.392 110.094L7.392 111.942L6.24 111.942L6.24 106.818L7.392 106.818L7.392 108.654L12 108.654L12 110.094ZM12 97.3405L11.268 97.3405L11.268 97.3765C11.524 97.5205 11.736 97.7565 11.904 98.0845C12.064 98.4045 12.144 98.7645 12.144 99.1645C12.144 99.7165 12 100.216 11.712 100.664C11.416 101.104 10.964 101.324 10.356 101.324C10.028 101.324 9.744 101.244 9.504 101.084C9.256 100.916 9.064 100.708 8.928 100.46C8.792 100.212 8.684 99.9045 8.604 99.5365C8.516 99.1605 8.46 98.8085 8.436 98.4805C8.412 98.1445 8.4 97.7725 8.4 97.3645L8.256 97.3645C7.92 97.3645 7.66 97.4885 7.476 97.7365C7.292 97.9845 7.2 98.3005 7.2 98.6845C7.2 99.2925 7.42 99.8165 7.86 100.256L6.984 101C6.376 100.344 6.072 99.5325 6.072 98.5645C6.072 98.0685 6.144 97.6485 6.288 97.3045C6.424 96.9525 6.616 96.6845 6.864 96.5005C7.104 96.3165 7.36 96.1885 7.632 96.1165C7.896 96.0365 8.184 95.9965 8.496 95.9965L12 95.9965L12 97.3405ZM9.576 97.3645L9.372 97.3645L9.372 97.6885C9.372 99.1525 9.692 99.8845 10.332 99.8845C10.588 99.8845 10.772 99.7885 10.884 99.5965C10.996 99.3965 11.052 99.1565 11.052 98.8765C11.052 98.3885 10.924 98.0165 10.668 97.7605C10.404 97.4965 10.04 97.3645 9.576 97.3645ZM12 88.2948L7.392 88.2948L7.392 90.1428L6.24 90.1428L6.24 85.0188L7.392 85.0188L7.392 86.8548L12 86.8548L12 88.2948ZM12 79.1172L6.24 79.1172L6.24 77.6772L9.96 77.6772L9.96 77.6532L6.24 75.1332L6.24 73.5732L12 73.5732L12 75.0132L8.304 75.0132L8.304 75.0372L12 77.5332L12 79.1172ZM12 59.2399L6.24 59.2399L6.24 56.2639C6.24 55.9199 6.276 55.6119 6.348 55.3399C6.42 55.0599 6.576 54.8079 6.816 54.5839C7.048 54.3599 7.356 54.2479 7.74 54.2479C8.036 54.2479 8.296 54.3399 8.52 54.5239C8.736 54.6999 8.88 54.9319 8.952 55.2199L8.976 55.2199C9.032 54.8599 9.184 54.5679 9.432 54.3439C9.672 54.1119 9.984 53.9959 10.368 53.9959C10.88 53.9959 11.28 54.1959 11.568 54.5959C11.856 54.9959 12 55.5239 12 56.1799L12 59.2399ZM10.968 57.7999L10.968 56.4439C10.968 55.7799 10.736 55.4479 10.272 55.4479C9.808 55.4479 9.576 55.7679 9.576 56.4079L9.576 57.7999L10.968 57.7999ZM8.544 57.7999L8.544 56.4319C8.544 55.9039 8.332 55.6399 7.908 55.6399C7.476 55.6399 7.26 55.9399 7.26 56.5399L7.26 57.7999L8.544 57.7999ZM12 47.8071L6.24 47.8071L6.24 46.3671L8.412 46.3671L8.412 43.9431L6.24 43.9431L6.24 42.5031L12 42.5031L12 43.9431L9.564 43.9431L9.564 46.3671L12 46.3671L12 47.8071ZM12 35.9758L6.23999 35.9758L6.23999 34.5358L9.96 34.5358L9.96 34.5118L6.23999 31.9918L6.23999 30.4318L12 30.4318L12 31.8718L8.30399 31.8718L8.30399 31.8958L12 34.3918L12 35.9758ZM12.192 22.0625C12.192 23.1425 11.844 23.9825 11.148 24.5825L10.308 23.7185C10.532 23.5505 10.716 23.3305 10.86 23.0585C11.004 22.7785 11.076 22.4825 11.076 22.1705C11.076 21.4105 10.832 21.0305 10.344 21.0305C10.048 21.0305 9.84399 21.1505 9.73199 21.3905C9.61999 21.6225 9.56399 21.9465 9.56399 22.3625L9.56399 22.8185L8.53199 22.8185L8.53199 22.3625C8.53199 21.5705 8.28799 21.1745 7.79999 21.1745C7.37599 21.1745 7.16399 21.4985 7.16399 22.1465C7.16399 22.7305 7.38399 23.1905 7.82399 23.5265L7.04399 24.3305C6.39599 23.8185 6.07199 23.0345 6.07199 21.9785C6.07199 21.2985 6.21199 20.7545 6.49199 20.3465C6.77199 19.9305 7.15599 19.7225 7.64399 19.7225C7.97199 19.7225 8.25999 19.8305 8.50799 20.0465C8.74799 20.2625 8.90399 20.5385 8.97599 20.8745L8.99999 20.8745C9.07199 20.4825 9.23199 20.1665 9.47999 19.9265C9.72799 19.6865 10.036 19.5665 10.404 19.5665C10.964 19.5665 11.404 19.8065 11.724 20.2865C12.036 20.7585 12.192 21.3505 12.192 22.0625Z" fill="white"/>
<path fill-rule="evenodd" clip-rule="evenodd" d="M7.78077 162.092C4.87234 162.607 2.59053 164.902 2.09136 167.814C2.00625 168.311 2 168.597 2 172.002C2 175.407 2.00625 175.692 2.09136 176.189C2.57718 179.023 4.7085 181.238 7.56017 181.871C8.23732 182.021 9.42928 182.044 10.1542 181.92C13.0256 181.429 15.1941 179.356 15.8758 176.449C15.9744 176.029 15.9776 175.915 15.9931 172.196C16.0083 168.56 16.0046 168.347 15.916 167.828C15.4145 164.885 13.1246 162.592 10.1848 162.089C9.48624 161.969 8.46831 161.971 7.78077 162.092ZM10.0121 164.091C10.9401 164.284 11.7359 164.7 12.4286 165.356C12.9077 165.809 13.1976 166.205 13.4934 166.812C13.7706 167.38 13.915 167.87 13.985 168.479C14.0446 168.999 14.0446 175.004 13.985 175.524C13.8933 176.323 13.5935 177.148 13.1545 177.811C12.9292 178.152 12.3983 178.715 12.0576 178.975C10.5644 180.115 8.57932 180.333 6.902 179.541C6.33333 179.273 5.99931 179.047 5.5775 178.648C4.99313 178.094 4.63265 177.561 4.33468 176.809C3.99249 175.945 3.99742 176.016 3.99742 172.002C3.99742 167.987 3.99249 168.058 4.33468 167.194C4.71532 166.234 5.39534 165.377 6.19712 164.847C6.83005 164.428 7.6857 164.11 8.43156 164.016C8.82677 163.966 9.58283 164.002 10.0121 164.091ZM8.62674 166.065C8.41431 166.156 8.21823 166.344 8.10544 166.563C8.02197 166.725 8.01577 166.857 8.01577 168.479C8.01577 169.944 8.02728 170.247 8.08852 170.394C8.38827 171.111 9.368 171.201 9.82313 170.553L9.96619 170.35L9.97954 168.547C9.99218 166.839 9.98804 166.734 9.90161 166.566C9.65257 166.082 9.09362 165.862 8.62674 166.065Z" fill="white"/>
</svg>
