<svg width="17" height="17" viewBox="0 0 17 17" fill="none" xmlns="http://www.w3.org/2000/svg">
<path fill-rule="evenodd" clip-rule="evenodd" d="M5.32333 0.019009C4.22541 0.0650058 3.47056 0.204093 2.83517 0.477515C2.24053 0.733421 1.88744 0.969221 1.44902 1.4032C0.854508 1.99169 0.48404 2.65302 0.251445 3.54109C0.0462836 4.32443 0.000503621 5.22632 4.20276e-06 8.49305C-0.000495215 11.7055 0.0433204 12.6182 0.235663 13.4014C0.715204 15.354 2.1481 16.5959 4.25305 16.8832C4.85784 16.9658 6.12384 17.0003 8.53952 17C10.786 16.9998 12.0814 16.968 12.6644 16.899C13.8558 16.7578 14.7901 16.3473 15.5235 15.6427C16.3535 14.8452 16.7924 13.8898 16.9531 12.5311C17.016 11.9988 17.0154 4.90617 16.9524 4.40519C16.8245 3.38801 16.5188 2.55106 16.0412 1.90993C15.8038 1.59131 15.2995 1.10738 14.982 0.893513C14.2655 0.410945 13.4046 0.143008 12.2685 0.0490199C11.733 0.0047181 6.23214 -0.0190447 5.32333 0.019009ZM12.5257 1.62361C13.4746 1.76396 14.0072 2.00053 14.5192 2.50895C14.8512 2.83867 15.0366 3.13207 15.198 3.58283C15.4723 4.34895 15.4969 4.75435 15.497 8.50967C15.497 10.6731 15.4849 11.7124 15.4553 12.0635C15.3585 13.2158 15.1289 13.8375 14.5876 14.4138C14.0276 15.0099 13.3233 15.3073 12.2352 15.4071C11.6458 15.4611 6.77558 15.4876 5.65445 15.4429C5.14807 15.4226 4.61722 15.3899 4.47482 15.3701C3.84519 15.2827 3.235 15.0612 2.85771 14.7829C2.61925 14.6071 2.24123 14.1976 2.09979 13.962C1.82178 13.4988 1.65321 12.8442 1.59811 12.0137C1.49799 10.5052 1.53052 5.32585 1.64552 4.46913C1.76485 3.57974 2.03969 2.98281 2.56248 2.47758C3.13728 1.92209 3.88924 1.65176 5.05481 1.58154C5.30502 1.56645 7.00797 1.55787 8.83917 1.56246C11.6794 1.56957 12.2211 1.57855 12.5257 1.62361ZM12.6255 3.04413C12.2476 3.23264 12.07 3.5238 12.0692 3.95652C12.0686 4.26976 12.1435 4.45531 12.3557 4.66714C12.5675 4.87862 12.7538 4.95356 13.0676 4.95356C13.2917 4.95356 13.3639 4.93884 13.5231 4.86084C13.8601 4.69566 14.0505 4.40562 14.0758 4.01897C14.0981 3.67705 14.0236 3.47638 13.7864 3.23985C13.5659 3.01993 13.3749 2.94286 13.0503 2.94286C12.8697 2.94286 12.7908 2.96167 12.6255 3.04413ZM7.74228 4.19295C6.8673 4.35062 6.09354 4.76096 5.4388 5.41452C4.57494 6.2768 4.15633 7.28171 4.15633 8.49305C4.15633 9.22285 4.29363 9.82413 4.59858 10.4295C5.52919 12.2771 7.58014 13.2247 9.57631 12.7294C10.3598 12.5351 10.9675 12.1967 11.5552 11.6278C12.0849 11.115 12.4413 10.5565 12.6647 9.88891C12.8256 9.40824 12.8845 9.03445 12.8845 8.49305C12.8845 7.95482 12.8256 7.5778 12.6683 7.10813C12.4541 6.46856 12.1445 5.96303 11.6626 5.46614C11.0047 4.78762 10.1823 4.34812 9.27596 4.19069C8.90596 4.12642 8.10499 4.12758 7.74228 4.19295ZM9.06098 5.71493C10.5878 6.00756 11.599 7.50266 11.3055 9.03362C11.1274 9.96269 10.4444 10.7859 9.57222 11.1225C9.14635 11.2869 8.89873 11.3264 8.40634 11.3087C8.05705 11.2961 7.91891 11.2757 7.69051 11.2029C6.68002 10.8811 5.94614 10.0698 5.73802 9.04448C5.65788 8.64969 5.68907 8.03571 5.80827 7.66219C6.12397 6.67282 6.95916 5.91584 7.9531 5.71816C8.24956 5.65917 8.76236 5.6577 9.06098 5.71493Z" fill="#F5F5F5"/>
</svg>
