<svg width="51" height="64" viewBox="0 0 51 64" fill="none" xmlns="http://www.w3.org/2000/svg">
<path fill-rule="evenodd" clip-rule="evenodd" d="M24.8093 0.318632C24.5215 0.626272 24.4982 0.797119 24.4982 2.59267C24.4982 4.43621 24.5149 4.54987 24.8293 4.84659C25.2591 5.25179 25.8 5.24389 26.1907 4.82647C26.4785 4.51883 26.5018 4.34799 26.5018 2.55244C26.5018 0.708894 26.4851 0.595235 26.1707 0.298516C25.7409 -0.10669 25.2 -0.0987872 24.8093 0.318632ZM6.49686 6.10115C6.26729 6.26251 6.1787 6.47029 6.1787 6.84718C6.1787 7.31475 6.31867 7.51003 7.51087 8.70696C8.70306 9.9039 8.89756 10.0444 9.36328 10.0444C9.73869 10.0444 9.94564 9.95548 10.1064 9.72501C10.5556 9.08127 10.4059 8.7722 8.9259 7.2863C7.44589 5.8004 7.13804 5.6501 6.49686 6.10115ZM42.0741 7.2863C40.914 8.45105 40.6708 8.77076 40.6708 9.132C40.6708 9.68291 41.106 10.0923 41.6918 10.0923C42.0644 10.0923 42.3549 9.86999 43.479 8.72478C44.6716 7.50988 44.8213 7.29966 44.8213 6.84101C44.8213 6.47043 44.7316 6.26165 44.5032 6.10115C43.862 5.6501 43.5541 5.8004 42.0741 7.2863ZM22.0683 8.47404C14.263 10.168 8.75487 17.0003 8.75487 24.9882C8.75487 30.1662 11.1902 35.165 15.2099 38.238C16.0181 38.8557 16.2326 39.1056 16.3564 39.5727C16.4402 39.8888 16.825 41.322 17.2117 42.7576C17.5983 44.1931 17.9146 45.3969 17.9146 45.4327C17.9146 45.4685 17.6649 45.6636 17.3597 45.8663C16.6464 46.3402 16.054 47.494 16.054 48.4096C16.054 49.4224 16.6523 50.5036 17.508 51.0377L18.2008 51.4701L18.1997 52.3466C18.1987 53.2164 18.1941 53.2258 17.6344 53.5467C16.3522 54.2818 15.7976 55.7246 16.2122 57.2466C16.3751 57.844 17.5884 59.1864 17.9657 59.1864C18.0964 59.1864 18.187 59.441 18.2401 59.957C18.3988 61.5017 19.6721 63.1565 21.1388 63.7245C21.7747 63.9707 22.2467 64 25.5716 64C29.1721 64 29.3169 63.9891 30.0372 63.662C31.4754 63.009 32.7992 61.1108 32.7992 59.7014C32.7992 59.3019 32.8723 59.1908 33.2342 59.0403C34.1192 58.6723 34.946 57.32 34.946 56.2407C34.946 55.1615 34.1192 53.8092 33.2342 53.4412C32.8145 53.2666 32.7992 53.2283 32.7992 52.3529V51.4455L33.3779 51.1189C34.035 50.7482 34.7533 49.7546 34.889 49.0288C35.1048 47.8737 34.5032 46.3921 33.5876 45.8239C33.3114 45.6527 33.0854 45.4798 33.0854 45.44C33.0854 45.4002 33.4017 44.1931 33.7883 42.7576C34.175 41.322 34.5597 39.8885 34.6431 39.572C34.7662 39.1054 34.975 38.8604 35.7456 38.2788C37.6779 36.8199 39.6741 34.3081 40.7372 31.998C42.6804 27.7755 42.7408 22.6274 40.8975 18.3467C39.2437 14.5067 35.9454 11.1422 32.2637 9.54051C30.0218 8.565 28.7199 8.29673 25.9294 8.23494C23.8003 8.18781 23.2214 8.22373 22.0683 8.47404ZM29.2927 10.6075C30.9758 11.0653 33.3862 12.304 34.7665 13.4201C37.5283 15.6535 39.4305 18.9084 40.0451 22.4521C40.3484 24.201 40.2522 26.91 39.8291 28.5386C38.9458 31.9395 36.7427 35.1912 34.0872 37.0137C33.733 37.2569 33.3392 37.5764 33.2121 37.724C33.085 37.8714 32.5766 39.5116 32.0823 41.3688C31.5879 43.226 31.153 44.8588 31.1159 44.997C31.0605 45.2032 30.8836 45.2485 30.1347 45.2485H29.2211V40.5067C29.2211 35.9565 29.2095 35.7533 28.9349 35.4775C28.523 35.064 27.877 35.1055 27.5141 35.5688C27.2279 35.9341 27.2175 36.1106 27.2175 40.5979V45.2485H25.5H23.7826V40.5979C23.7826 36.1106 23.7721 35.9341 23.4859 35.5688C23.1231 35.1055 22.477 35.064 22.0651 35.4775C21.7905 35.7533 21.7789 35.9565 21.7789 40.5067V45.2485H20.8653C20.1164 45.2485 19.9395 45.2032 19.8841 44.997C19.847 44.8586 19.4121 43.226 18.9177 41.3688C18.4234 39.5116 17.915 37.8714 17.7879 37.724C17.6608 37.5764 17.267 37.2569 16.9128 37.0137C16.0343 36.4108 14.5755 34.9991 13.8304 34.0307C11.8566 31.4653 10.9098 28.7783 10.7965 25.4193C10.7211 23.1843 10.9853 21.5554 11.7405 19.5998C13.5563 14.8984 17.6467 11.443 22.6376 10.3943C24.0847 10.0903 27.8323 10.2104 29.2927 10.6075ZM26.7477 15.0783C26.0313 15.2588 25.4654 15.5614 24.8807 16.0768C24.4342 16.4705 24.3619 16.4892 23.8428 16.3454C23.0071 16.1136 21.1164 16.2602 20.3166 16.6187C19.3329 17.0595 18.2309 18.1547 17.7507 19.1687C17.526 19.6429 17.3423 20.1368 17.3423 20.2664C17.3421 20.4249 17.1667 20.5345 16.8054 20.6018C15.4207 20.8594 13.8408 22.2381 13.3987 23.5741C13.0828 24.5291 13.1706 26.1212 13.5838 26.928C14.0164 27.7732 14.8547 28.5701 15.7582 28.9956L16.555 29.3707L22.8232 29.4124C27.955 29.4464 29.1049 29.4896 29.1662 29.6499C29.2074 29.7577 29.1078 30.1081 28.9449 30.4287C28.1227 32.047 29.0996 33.7514 30.8501 33.7527C31.6978 33.7534 32.3193 33.4027 32.8613 32.6175C33.2666 32.0303 33.6348 31.8271 34.5814 31.6686C35.7619 31.471 36.9272 30.5911 37.4527 29.5005C37.6014 29.1921 37.7489 28.5145 37.7805 27.9949C37.852 26.8156 37.4589 25.7986 36.6462 25.0616C36.1871 24.6451 36.0909 24.4636 36.0909 24.013C36.0909 21.9773 34.807 19.8995 33.001 19.0124C32.575 18.8032 32.2261 18.5589 32.2252 18.4694C32.222 18.08 31.4991 16.7954 31.0031 16.2975C29.982 15.2722 28.1085 14.7355 26.7477 15.0783ZM29.2349 17.4366C29.8207 17.8257 30.3661 18.8107 30.3661 19.4793C30.3661 20.0358 30.7027 20.3352 31.6436 20.6158C33.2201 21.0859 34.2284 22.7269 34.0114 24.47C33.8836 25.4967 34.0012 25.8005 34.6566 26.1361C35.7764 26.7096 36.1352 27.819 35.5256 28.8227C35.1807 29.3907 34.8817 29.5548 33.8402 29.7481C32.7473 29.9509 32.3848 30.1577 31.6151 31.0171C30.679 32.0626 30.4189 32.0023 30.9354 30.8592C31.3051 30.0415 31.2968 29.5032 30.9028 28.7187C30.6675 28.2502 30.4088 27.9904 29.9422 27.7542C29.3102 27.4342 29.2415 27.4309 23.2155 27.4277C17.5879 27.4249 17.0831 27.4043 16.5408 27.1572C15.7436 26.7936 15.3019 26.133 15.2238 25.1872C15.0991 23.6774 16.2385 22.5455 17.8827 22.5455C18.8154 22.5455 19.2013 22.192 19.2058 21.3329C19.2118 20.2183 19.9492 19.0927 21.0395 18.5343C21.8237 18.1327 23.1544 18.1271 23.9257 18.5221C24.7648 18.9519 25.0217 18.8921 25.7645 18.0947C26.1306 17.7015 26.6557 17.2802 26.9312 17.1585C27.5884 16.8683 28.5551 16.9848 29.2349 17.4366ZM20.0719 22.2056C19.7287 22.6436 19.7206 22.6993 19.934 23.1695C20.1042 23.5445 20.6084 23.8387 21.081 23.8387C21.5357 23.8387 22.2082 24.6037 22.2082 25.1208C22.2082 25.6854 22.6539 26.1377 23.2101 26.1377C24.1976 26.1377 24.4899 25.0905 23.8731 23.7609C23.3174 22.5628 22.2268 21.827 21.0067 21.827C20.4876 21.827 20.313 21.8977 20.0719 22.2056ZM0.274252 25.2396C-0.007553 25.556 -0.061081 25.8229 0.0630047 26.2927C0.211135 26.854 0.719929 26.9998 2.52912 26.9998C4.33831 26.9998 4.8471 26.854 4.99523 26.2927C5.11932 25.8229 5.06579 25.556 4.78399 25.2396C4.59063 25.0225 4.28263 24.9882 2.52912 24.9882C0.775603 24.9882 0.467608 25.0225 0.274252 25.2396ZM46.216 25.2396C45.9342 25.556 45.8807 25.8229 46.0048 26.2927C46.1529 26.854 46.6617 26.9998 48.4709 26.9998C50.2801 26.9998 50.7889 26.854 50.937 26.2927C51.0611 25.8229 51.0076 25.556 50.7258 25.2396C50.5324 25.0225 50.2244 24.9882 48.4709 24.9882C46.7174 24.9882 46.4094 25.0225 46.216 25.2396ZM32.5909 47.6129C32.8125 47.8352 32.9423 48.1297 32.9423 48.4096C32.9423 48.6895 32.8125 48.9841 32.5909 49.2064L32.2397 49.5592H25.5H18.7603L18.4091 49.2064C18.1875 48.9841 18.0577 48.6895 18.0577 48.4096C18.0577 48.1297 18.1875 47.8352 18.4091 47.6129L18.7603 47.2601H25.5H32.2397L32.5909 47.6129ZM30.7955 52.2893V53.0077H25.5H20.2045V52.2893V51.5708H25.5H30.7955V52.2893ZM32.5969 55.4944C33.1504 56.1406 33.0136 56.8983 32.2719 57.295C31.8285 57.5321 19.1715 57.5321 18.7281 57.295C18.2856 57.0583 18.0676 56.7312 18.0623 56.2961C18.0566 55.8289 18.5303 55.2037 18.9551 55.1177C19.1306 55.0822 22.1942 55.0616 25.7629 55.0721L32.2517 55.0912L32.5969 55.4944ZM30.7386 59.9385C30.5917 60.6763 30.012 61.4232 29.3285 61.7554C28.7467 62.0382 28.4699 62.0602 25.5 62.0602C22.5301 62.0602 22.2533 62.0382 21.6715 61.7554C20.988 61.4232 20.4083 60.6763 20.2614 59.9385L20.1688 59.4738H25.5H30.8312L30.7386 59.9385Z" fill="#1FB29A"/>
</svg>
