<svg width="51" height="52" viewBox="0 0 51 52" fill="none" xmlns="http://www.w3.org/2000/svg">
<path fill-rule="evenodd" clip-rule="evenodd" d="M22.0484 0.115918C21.694 0.29082 21.5324 0.760985 21.0613 2.9884C20.8137 4.15919 20.5949 5.13345 20.5752 5.15356C20.5555 5.17367 20.1651 5.29667 19.7076 5.42688C18.1772 5.86241 16.6031 6.52708 15.2582 7.30541L14.529 7.72732L12.6185 6.45923C10.4163 4.99744 10.2745 4.92249 9.8936 5.01847C9.55393 5.10399 5.15 9.53282 4.97419 9.96561C4.91044 10.1226 4.88494 10.3592 4.91742 10.4913C4.94999 10.6236 5.56259 11.6501 6.27878 12.7726L7.58097 14.8135L7.14199 15.6068C6.39881 16.9496 5.67783 18.7329 5.28587 20.1978C5.1753 20.6108 5.07111 20.9627 5.05418 20.98C5.03735 20.9972 4.01944 21.236 2.79215 21.5105C0.689596 21.9809 0.544564 22.0282 0.2804 22.3297L0 22.6497V25.9443C0 28.1556 0.0366563 29.3208 0.111363 29.4881C0.286477 29.88 0.702943 30.0331 2.93848 30.5269C4.08896 30.781 5.05956 31.0201 5.09532 31.0582C5.13108 31.0963 5.25918 31.4905 5.3798 31.9343C5.72375 33.1983 6.23067 34.4706 6.94586 35.865L7.60458 37.1492L6.3495 39.1152C4.90387 41.3797 4.83086 41.523 4.92509 41.9117C5.00896 42.2581 9.35232 46.7487 9.77676 46.9279C9.93076 46.9929 10.1642 47.0186 10.2956 46.9849C10.4271 46.9513 11.4591 46.3087 12.5889 45.5568L14.6434 44.1899L15.3259 44.5843C16.63 45.3379 18.65 46.1626 20.213 46.5798L20.5539 46.6707L21.073 49.051C21.5615 51.2922 21.6102 51.4481 21.904 51.7157L22.2161 52H25.5H28.7839L29.0977 51.7142C29.3941 51.4441 29.44 51.2966 29.925 49.0505L30.4387 46.6729L30.7833 46.5808C32.3525 46.1616 34.3688 45.3385 35.6741 44.5843L36.3566 44.1899L38.4111 45.5568C39.5409 46.3087 40.5729 46.9513 40.7044 46.9849C40.8358 47.0186 41.0692 46.9929 41.2232 46.9279C41.6477 46.7487 45.991 42.2581 46.0749 41.9117C46.1691 41.523 46.0961 41.3797 44.6505 39.1152L43.3954 37.1492L44.0541 35.865C44.7693 34.4706 45.2762 33.1983 45.6202 31.9343C45.7408 31.4905 45.8689 31.0963 45.9047 31.0582C45.9404 31.0201 46.911 30.781 48.0615 30.5269C50.2971 30.0331 50.7135 29.88 50.8886 29.4881C50.9633 29.3208 51 28.1556 51 25.9443V22.6497L50.7196 22.3297C50.4554 22.0282 50.3104 21.9809 48.2078 21.5105C46.9806 21.236 45.9608 20.9952 45.9415 20.9756C45.9223 20.956 45.8021 20.5584 45.6744 20.0919C45.2473 18.5314 44.5954 16.9263 43.8321 15.5549L43.4183 14.8114L44.662 12.8633C46.0955 10.6177 46.169 10.4732 46.0749 10.0848C45.991 9.7384 41.6477 5.24781 41.2232 5.06854C41.0692 5.00354 40.8373 4.97754 40.7077 5.01065C40.578 5.04386 39.5713 5.66841 38.4706 6.3987L36.4693 7.72631L35.7409 7.3049C34.397 6.52708 32.8224 5.86231 31.2924 5.42688C30.8349 5.29667 30.4445 5.17367 30.4248 5.15356C30.4051 5.13345 30.1863 4.15919 29.9387 2.9884C29.4579 0.714872 29.3075 0.28889 28.9225 0.110027C28.5989 -0.0402962 22.3541 -0.034913 22.0484 0.115918ZM27.6926 2.05325C27.6932 2.06717 27.9116 3.08154 28.1779 4.30728C28.7491 6.9363 28.6994 6.86114 30.0966 7.2083C31.8832 7.65237 33.6734 8.40266 35.2832 9.3823C35.7966 9.69462 36.3178 9.95027 36.4414 9.95027C36.7539 9.95027 37.0023 9.80686 39.0083 8.46858L40.772 7.2919L42.3087 8.85881L43.8454 10.4257L42.6914 12.2241C41.3789 14.2696 41.2383 14.5229 41.2383 14.8415C41.2383 14.9676 41.489 15.499 41.7953 16.0225C42.756 17.664 43.4918 19.4895 43.9273 21.3112C44.2678 22.7359 44.1941 22.6852 46.7724 23.2676C47.9745 23.5391 48.9693 23.7619 48.9829 23.7625C48.9966 23.7632 49.0078 24.7692 49.0078 25.9982C49.0078 27.2272 48.9966 28.2333 48.9829 28.234C48.9693 28.2346 47.9797 28.4561 46.7841 28.7262C44.9913 29.1311 44.5695 29.26 44.3776 29.4613C44.226 29.6203 44.0524 30.06 43.8804 30.7212C43.3827 32.634 42.7088 34.2576 41.6466 36.1028C41.3877 36.5525 41.2383 36.937 41.2383 37.1533C41.2383 37.4192 41.5257 37.9436 42.5421 39.5324L43.8459 41.5702L42.3087 43.1377L40.7715 44.7051L38.7575 43.3654C37.2649 42.3725 36.6589 42.0232 36.4166 42.0162C36.1911 42.0097 35.7796 42.1859 35.0905 42.5837C33.3916 43.5646 32.0307 44.1301 30.1607 44.6325C29.4552 44.8221 29.0247 44.9944 28.8892 45.1413C28.7398 45.3035 28.564 45.9241 28.2387 47.4376C27.9934 48.5782 27.7692 49.6143 27.7402 49.7401C27.6876 49.9685 27.6866 49.9686 25.5 49.9686C23.3134 49.9686 23.3124 49.9685 23.2598 49.7401C23.2308 49.6143 23.0066 48.5782 22.7613 47.4376C22.436 45.9241 22.2602 45.3035 22.1108 45.1413C21.9753 44.9944 21.5448 44.8221 20.8393 44.6325C18.9693 44.1301 17.6084 43.5646 15.9095 42.5837C15.2204 42.1859 14.8089 42.0097 14.5834 42.0162C14.3411 42.0232 13.7351 42.3725 12.2425 43.3654L10.2285 44.7051L8.69132 43.1377L7.15414 41.5702L8.45793 39.5324C9.47435 37.9436 9.76172 37.4192 9.76172 37.1533C9.76172 36.9357 9.6127 36.5552 9.35033 36.1028C8.31788 34.3226 7.61623 32.63 7.11958 30.7212C6.94755 30.06 6.77404 29.6203 6.62243 29.4613C6.43048 29.26 6.00874 29.1311 4.21587 28.7262C3.02026 28.4561 2.03074 28.2346 2.01709 28.234C2.00344 28.2333 1.99219 27.2272 1.99219 25.9982C1.99219 24.7692 2.00344 23.7632 2.01709 23.7625C2.03074 23.7619 3.02554 23.5391 4.22762 23.2676C6.80591 22.6852 6.7322 22.7359 7.07266 21.3112C7.50816 19.4895 8.24397 17.664 9.2047 16.0225C9.511 15.499 9.76172 14.9676 9.76172 14.8415C9.76172 14.523 9.62655 14.2799 8.31001 12.2306L7.15215 10.4283L8.69002 8.86013L10.228 7.2919L11.9917 8.46858C13.9977 9.80686 14.2461 9.95027 14.5586 9.95027C14.6822 9.95027 15.2034 9.69462 15.7168 9.3823C17.3266 8.40266 19.1168 7.65237 20.9034 7.2083C22.3006 6.86114 22.2509 6.9363 22.8221 4.30728C23.0884 3.08154 23.3068 2.06717 23.3074 2.05325C23.3081 2.03934 24.2947 2.02786 25.5 2.02786C26.7053 2.02786 27.6919 2.03934 27.6926 2.05325ZM24.1055 10.8293C21.5303 11.2295 20.3667 11.5848 18.627 12.5019C16.3068 13.725 14.3026 15.6029 12.832 17.9317C12.1077 19.0786 11.1562 21.383 11.1562 21.9902C11.1562 22.4737 11.6003 22.9512 12.05 22.9512C12.5775 22.9512 12.9131 22.7013 13.1045 22.1661C13.7635 20.325 14.1747 19.4912 15.0196 18.2838C17.4621 14.7935 21.7776 12.6391 25.9482 12.828C27.8317 12.9134 29.5987 13.3602 31.1279 14.1376C34.8703 16.0403 37.3285 19.3123 38.217 23.5733C38.4628 24.7514 38.4614 27.3463 38.2145 28.5139C37.3554 32.5767 34.8677 35.9256 31.3531 37.7504L30.5303 38.1777L30.5042 34.3546L30.4781 30.5314L32.4142 28.5413C33.5664 27.357 34.377 26.443 34.4161 26.2839C34.4523 26.1369 34.4668 25.4601 34.4485 24.78L34.415 23.5434L34.0777 23.2363C33.793 22.9771 33.684 22.9383 33.3804 22.9874C33.1543 23.024 32.9187 23.1609 32.7466 23.3555C32.4894 23.6464 32.4727 23.7228 32.4727 24.6044V25.5434L30.7689 27.269C29.8319 28.218 28.9354 29.1728 28.7767 29.3907L28.4883 29.7868V34.3278V38.8688L27.7163 38.9907C27.2918 39.0576 26.8435 39.1264 26.7202 39.1432L26.4961 39.1741V32.0371V24.9002L27.1187 24.6C28.3418 24.0104 29.1265 22.9959 29.3965 21.6553C29.7355 19.9724 28.7674 18.0125 27.2464 17.3025C26.0599 16.7486 24.9401 16.7486 23.7536 17.3025C22.2326 18.0125 21.2645 19.9724 21.6035 21.6553C21.8735 22.9959 22.6582 24.0104 23.8813 24.6L24.5039 24.9002V32.0371V39.1741L24.2798 39.1432C24.1565 39.1264 23.7082 39.0576 23.2837 38.9907L22.5117 38.8688V34.3352C22.5117 30.3067 22.4936 29.7735 22.3487 29.5504C22.259 29.4123 21.3658 28.4537 20.3637 27.4202L18.5419 25.5412L18.5097 24.5424C18.4778 23.5519 18.4748 23.5411 18.1402 23.2364C17.8554 22.9771 17.7465 22.9382 17.4429 22.9874C17.2168 23.024 16.9812 23.1609 16.8091 23.3555C16.5402 23.6596 16.5352 23.6897 16.5352 24.9689C16.5352 26.248 16.5405 26.2799 16.8236 26.6686C16.9823 26.8865 17.8788 27.8412 18.8158 28.7903L20.5195 30.5158V34.3469V38.178L19.8756 37.8835C18.1945 37.1144 15.8438 35.0555 14.8233 33.4585C14.2354 32.5384 13.5345 31.1057 13.2606 30.2642C13.0112 29.4976 12.9813 29.4462 12.6531 29.2172C12.2654 28.9467 11.7867 28.9963 11.4474 29.3422C11.0566 29.7407 11.0688 30.1145 11.5105 31.2948C13.5161 36.6539 17.963 40.2746 23.5303 41.0816C27.3734 41.6386 31.3907 40.544 34.5645 38.0751C35.4356 37.3975 36.8338 35.9604 37.47 35.0887C41.3963 29.7096 41.3963 22.2869 37.47 16.9078C36.8338 16.0361 35.4356 14.599 34.5645 13.9213C32.3424 12.1927 29.8519 11.1784 27.0727 10.8701C26.1491 10.7677 24.6356 10.7468 24.1055 10.8293ZM26.5573 19.2122C26.7445 19.3414 27.0203 19.626 27.17 19.8447C27.4005 20.1812 27.4424 20.3462 27.4424 20.9198C27.4424 21.4933 27.4005 21.6584 27.17 21.9949C26.7149 22.6594 26.2706 22.9004 25.5 22.9004C24.9583 22.9004 24.7711 22.8542 24.4701 22.6464C23.7047 22.1182 23.3661 21.2244 23.5981 20.3457C23.7292 19.849 24.3832 19.1365 24.8396 18.993C25.3317 18.8382 26.1701 18.9452 26.5573 19.2122ZM11.2061 25.0748C10.281 25.4786 10.4747 26.8123 11.4827 26.9792C11.806 27.0326 11.8888 26.9983 12.1995 26.6815C12.6429 26.2293 12.667 25.8269 12.2769 25.3901C11.9858 25.0644 11.5343 24.9314 11.2061 25.0748Z" fill="#1FB29A"/>
</svg>
