<svg width="58" height="100" viewBox="0 0 58 100" fill="none" xmlns="http://www.w3.org/2000/svg">
<path fill-rule="evenodd" clip-rule="evenodd" d="M7.8738 0.365374C6.17771 1.18416 5.68622 2.63088 5.81275 6.4331C5.89923 9.03095 6.06051 9.58989 6.9965 10.5309C7.80121 11.3404 8.35378 11.4665 11.093 11.4665H13.641V15.253V19.0395L12.7725 19.5113C11.735 20.0749 10.9107 20.9651 10.3238 22.1556L9.89262 23.0302V30.9013V38.7724L10.3812 39.7563C10.9548 40.9113 12.0564 42.0312 12.9612 42.3789L13.6033 42.6257L13.6755 45.5578C13.7383 48.1022 13.8004 48.5964 14.1464 49.2972C14.5576 50.1304 15.2338 50.8134 15.8551 51.0231C16.1041 51.107 17.5759 54.0415 20.7706 60.8238C25.74 71.3742 25.695 71.3007 27.5895 71.9825C28.6913 72.3789 29.309 72.3789 30.4108 71.9825C32.3053 71.3007 32.2603 71.3742 37.2297 60.8238C40.4244 54.0415 41.8962 51.107 42.1452 51.0231C42.7665 50.8134 43.4427 50.1304 43.8539 49.2972C44.1998 48.5964 44.262 48.1022 44.3247 45.5578L44.397 42.6257L45.0391 42.3789C45.9438 42.0312 47.0455 40.9113 47.6191 39.7563L48.1077 38.7724V30.9013V23.0302L47.6765 22.1556C47.0896 20.9651 46.2653 20.0749 45.2278 19.5113L44.3593 19.0395V15.253V11.4665H46.9073C49.6465 11.4665 50.1991 11.3404 51.0038 10.5309C51.9398 9.58989 52.101 9.03095 52.1875 6.4331C52.314 2.63088 51.8226 1.18416 50.1265 0.365374C49.4741 0.050336 48.8566 0.00796825 44.8539 0.00427565L40.32 0L39.8713 0.477123C39.295 1.08951 39.2643 2.11975 39.8069 2.64216C40.1562 2.97838 40.5961 3.02133 44.6067 3.10956L49.0219 3.20674V5.73325V8.25977L34.8512 8.35695C27.0574 8.41039 20.5343 8.52992 20.3555 8.62282C19.5729 9.02881 19.4509 10.2744 20.1238 10.9894L20.5725 11.4665H30.9118H41.2509V15.1591V18.8517H34.037C29.065 18.8517 26.6824 18.9199 26.3699 19.0713C25.8312 19.3321 25.4438 20.2133 25.6151 20.7874C25.6824 21.0127 25.9111 21.3689 26.1234 21.5792C26.4953 21.9475 26.81 21.9613 34.8401 21.9617C44.1273 21.9619 44.006 21.9457 44.8585 23.3019C45.2706 23.9576 45.2735 24.0107 45.2735 30.9013C45.2735 37.7919 45.2706 37.8449 44.8585 38.5007C44.0066 39.8562 44.1221 39.8407 34.8849 39.8409C29.9308 39.8411 26.467 39.9165 26.2704 40.0282C26.0898 40.131 25.8383 40.4809 25.7118 40.8056C25.4198 41.5546 25.7133 42.4133 26.3699 42.7312C26.6824 42.8826 29.0663 42.9508 34.0423 42.9508H41.2615L41.2105 45.5259L41.1595 48.101H29.0001H16.8408L16.7898 45.5259L16.7388 42.9508H19.0211C20.3279 42.9508 21.4972 42.857 21.7566 42.7312C22.6659 42.291 22.8056 40.7351 21.9903 40.1283C21.6841 39.9003 20.9084 39.8413 18.2171 39.8409C14.4088 39.8407 13.8995 39.7062 13.1418 38.5007C12.7297 37.8449 12.7267 37.7919 12.7267 30.9013C12.7267 24.0107 12.7297 23.9576 13.1418 23.3019C13.8979 22.0989 14.4124 21.9619 18.1785 21.9617C20.0203 21.9615 21.6753 21.8771 21.8561 21.7743C22.3984 21.4657 22.6835 20.5056 22.4275 19.8487C22.1024 19.0146 21.5486 18.8517 19.0381 18.8517H16.773L16.7154 14.0953C16.6413 7.95737 17.0407 8.48852 12.4022 8.35695L8.97838 8.25977V5.73325V3.20674L22.2613 3.10956C34.9972 3.01647 35.5603 2.99723 35.9291 2.64216C36.4722 2.11975 36.4416 1.08971 35.8651 0.477123L35.4164 0L22.0145 0.00427565C9.40752 0.00835695 8.5688 0.0297352 7.8738 0.365374ZM38.3253 51.4057C38.3253 51.72 30.2612 68.5736 30.0012 68.8031C29.8275 68.9563 29.377 69.0818 29.0001 69.0818C28.6233 69.0818 28.1728 68.9563 27.999 68.8031C27.739 68.5736 19.6749 51.72 19.6749 51.4057C19.6749 51.3519 23.8713 51.3078 29.0001 51.3078C34.129 51.3078 38.3253 51.3519 38.3253 51.4057ZM28.3602 75.6416C27.573 76.1215 27.5492 76.2834 27.5432 81.1975L27.5374 85.9193L27.9862 86.3963C28.2691 86.6971 28.6439 86.8734 29.0001 86.8734C29.3563 86.8734 29.7312 86.6971 30.014 86.3963L30.4629 85.9193L30.4571 81.1975C30.451 76.2465 30.4284 76.0982 29.6065 75.6329C29.1124 75.3532 28.8299 75.3552 28.3602 75.6416ZM27.9164 90.6894C27.5635 91.1659 27.5374 91.4532 27.5374 94.8412V98.4812L28.0193 98.9937C28.6441 99.6578 29.3561 99.6578 29.9809 98.9937L30.4629 98.4812V94.8412C30.4629 91.4532 30.4368 91.1659 30.0839 90.6894C29.7917 90.2943 29.5437 90.1773 29.0001 90.1773C28.4565 90.1773 28.2086 90.2943 27.9164 90.6894ZM0.637078 96.5921C0.474344 96.6932 0.238107 97.0403 0.112125 97.3635C-0.178784 98.1098 0.115782 98.969 0.771288 99.2864C1.09218 99.4418 4.46553 99.506 12.3291 99.506C22.2147 99.506 23.4792 99.4718 23.8513 99.1948C24.4235 98.7688 24.6467 98.074 24.4173 97.4325C24.0377 96.3715 24.4789 96.4089 12.2696 96.4085C5.4743 96.4083 0.814623 96.4819 0.637078 96.5921ZM34.0813 96.6613C33.6145 97.0385 33.3691 97.8717 33.5644 98.4174C33.9664 99.5417 33.5695 99.506 45.6712 99.506C53.5347 99.506 56.9081 99.4418 57.229 99.2864C57.8856 98.9684 58.1791 98.1098 57.8871 97.3608C57.7605 97.036 57.5091 96.6862 57.3284 96.5834C57.1279 96.4693 52.5949 96.3988 45.697 96.4026C36.7137 96.4075 34.3299 96.4606 34.0813 96.6613Z" fill="#1FB29A"/>
</svg>
