<svg width="29" height="28" viewBox="0 0 29 28" fill="none" xmlns="http://www.w3.org/2000/svg">
<path fill-rule="evenodd" clip-rule="evenodd" d="M9.08098 0.031309C7.20806 0.107068 5.92037 0.336153 4.83646 0.786494C3.82207 1.20799 3.21975 1.59636 2.47185 2.31115C1.45769 3.28042 0.825716 4.36968 0.428935 5.83238C0.0789544 7.12259 0.000859118 8.60805 7.16942e-06 13.9886C-0.000844779 19.2797 0.0738995 20.7829 0.402013 22.0729C1.22005 25.289 3.66441 27.3344 7.2552 27.8077C8.28691 27.9437 10.4465 28.0005 14.5674 28C18.3996 27.9996 20.6094 27.9473 21.604 27.8336C23.6364 27.6011 25.2302 26.9249 26.4812 25.7644C27.8971 24.4509 28.6459 22.8773 28.92 20.6394C29.0274 19.7628 29.0263 8.08075 28.9188 7.2556C28.7006 5.58025 28.1792 4.20174 27.3644 3.14576C26.9595 2.62098 26.0992 1.82392 25.5576 1.47167C24.3353 0.676851 22.8666 0.235542 20.9286 0.0807387C20.0151 0.00777098 10.6313 -0.0313677 9.08098 0.031309ZM21.3674 2.67418C22.986 2.90535 23.8947 3.29499 24.768 4.13239C25.3343 4.67546 25.6508 5.1587 25.926 5.90113C26.394 7.16298 26.436 7.8307 26.4361 14.0159C26.4361 17.5792 26.4153 19.291 26.365 19.8693C26.1998 21.7671 25.8082 22.7912 24.8847 23.7404C23.9294 24.7222 22.7281 25.212 20.8718 25.3764C19.8664 25.4654 11.5583 25.509 9.64582 25.4353C8.78201 25.402 7.87644 25.3481 7.63352 25.3155C6.55944 25.1716 5.51853 24.8066 4.87491 24.3483C4.46814 24.0588 3.82327 23.3843 3.582 22.9962C3.10774 22.2333 2.82018 21.1552 2.72619 19.7873C2.5554 17.3027 2.61089 8.772 2.80706 7.36092C3.01062 5.89604 3.47948 4.91286 4.3713 4.08072C5.35183 3.1658 6.63458 2.72055 8.62292 2.60488C9.04974 2.58003 11.9548 2.56591 15.0786 2.57346C19.9237 2.58518 20.8478 2.59996 21.3674 2.67418ZM21.5376 5.01386C20.8929 5.32434 20.5901 5.80391 20.5887 6.51662C20.5877 7.03254 20.7153 7.33815 21.0773 7.68706C21.4387 8.03537 21.7564 8.1588 22.2917 8.1588C22.674 8.1588 22.7973 8.13455 23.0688 8.00608C23.6437 7.73403 23.9684 7.25632 24.0116 6.61948C24.0498 6.05632 23.9227 5.7258 23.518 5.33622C23.1418 4.97401 22.8159 4.84707 22.2623 4.84707C21.9542 4.84707 21.8196 4.87805 21.5376 5.01386ZM13.2074 6.90604C11.7148 7.16572 10.3949 7.84159 9.27795 8.91804C7.80431 10.3383 7.09021 11.9934 7.09021 13.9886C7.09021 15.1906 7.32444 16.1809 7.84464 17.1781C9.43216 20.2211 12.9308 21.7819 16.3361 20.9661C17.6725 20.646 18.7093 20.0887 19.7119 19.1516C20.6155 18.3071 21.2234 17.3872 21.6046 16.2876C21.879 15.4959 21.9794 14.8803 21.9794 13.9886C21.9794 13.1021 21.879 12.4811 21.6106 11.7075C21.2453 10.6541 20.7171 9.82146 19.8951 9.00305C18.7727 7.88549 17.3698 7.16162 15.8237 6.90232C15.1925 6.79645 13.8262 6.79836 13.2074 6.90604ZM15.457 9.41283C18.0615 9.89481 19.7865 12.3573 19.2858 14.8789C18.9821 16.4091 17.8169 17.765 16.3291 18.3194C15.6026 18.5902 15.1802 18.6553 14.3402 18.626C13.7444 18.6053 13.5087 18.5717 13.1191 18.4518C11.3953 17.9218 10.1434 16.5856 9.78838 14.8968C9.65167 14.2465 9.70489 13.2353 9.90822 12.6201C10.4468 10.9905 11.8715 9.74373 13.5671 9.41814C14.0728 9.32098 14.9476 9.31857 15.457 9.41283Z" fill="black"/>
</svg>
