<svg width="35" height="22" viewBox="0 0 35 22" fill="none" xmlns="http://www.w3.org/2000/svg">
<path fill-rule="evenodd" clip-rule="evenodd" d="M1.49213 0.0994135C1.03734 0.225464 0.740378 0.405172 0.4651 0.720851C-0.207773 1.49238 -0.15845 2.5563 0.664649 5.02793C1.84984 8.58677 3.93536 12.4489 6.24006 15.3527C9.18542 19.0637 12.2862 21.1739 15.8183 21.8712C16.6797 22.0413 18.702 22.0433 19.369 21.8749C20.4783 21.5947 21.0849 21.0902 21.2895 20.2776C21.3181 20.1639 21.3363 19.2889 21.33 18.333C21.3237 17.3771 21.3389 16.486 21.3637 16.3527L21.4088 16.1104L21.7983 16.3195C22.6297 16.7656 23.7757 17.8185 25.479 19.7013C26.7506 21.1069 27.136 21.4541 27.7557 21.7525L28.2688 21.9996H30.7657C33.7221 21.9996 33.7591 21.9929 34.4029 21.3447C34.7137 21.0318 34.8154 20.8718 34.9083 20.55C35.3479 19.0274 34.2605 17.2126 30.4865 13.1698C29.737 12.367 29.1239 11.6906 29.1239 11.6668C29.1239 11.643 29.4282 11.1839 29.8002 10.6468C31.2221 8.59352 32.7377 6.07966 33.5036 4.50403C34.1793 3.11409 34.2838 2.77851 34.2863 1.9899C34.2888 1.2234 34.169 0.922876 33.7001 0.518687C33.1517 0.0461 33.0167 0.0268137 30.2526 0.0268137C27.8351 0.0268137 27.7827 0.0297754 27.3968 0.186685C27.175 0.276849 26.8398 0.497266 26.6278 0.692403C26.2402 1.04907 26.1991 1.12146 25.429 2.80041C24.4165 5.00789 23.0989 7.19435 21.9656 8.5475C21.2396 9.4145 21.2971 9.66185 21.3442 5.87275C21.397 1.63296 21.3453 1.19275 20.7182 0.540453C20.1845 -0.0145833 20.1728 -0.01603 16.3515 0.00704486L13.072 0.0268137L12.6685 0.234694C11.9584 0.600448 11.5362 1.36888 11.6372 2.11147C11.6925 2.518 11.9387 3.0552 12.2813 3.51718C12.431 3.719 12.6153 4.0083 12.6908 4.16004C12.9951 4.77108 13.0081 4.92151 13.0109 7.86835L13.0135 10.6816L12.7485 10.3825C12.4033 9.99275 11.4647 8.55419 10.9595 7.64076C10.136 6.15144 9.31109 4.28747 8.60251 2.31488C8.14512 1.04156 7.77024 0.54617 6.98976 0.18386C6.6603 0.0309464 6.58895 0.0264003 4.25716 0.0117288C2.31126 -0.000531913 1.7934 0.0159306 1.49213 0.0994135ZM6.22365 2.31708C6.28214 2.38341 6.42272 2.70109 6.53593 3.0231C7.57309 5.97262 9.02733 8.92325 10.4482 10.961C11.005 11.7596 12.0713 12.8419 12.562 13.1068C13.351 13.5325 14.3151 13.3885 14.7612 12.7782C15.1937 12.1868 15.2026 12.097 15.2026 8.32688C15.2026 5.24938 15.1902 4.86365 15.0757 4.36627C14.9399 3.77686 14.5821 2.92633 14.3244 2.58034C14.2377 2.46393 14.1441 2.33003 14.1163 2.28264C14.0763 2.21438 14.5915 2.19654 16.601 2.19654H19.1361L19.1392 5.65777C19.1408 7.56141 19.1677 9.42972 19.199 9.80946C19.2661 10.6236 19.4512 11.1212 19.8022 11.4316C20.1154 11.7083 20.3217 11.7816 20.7834 11.7797C21.7963 11.7756 22.9959 10.8814 24.2339 9.20717C25.3913 7.642 26.5138 5.69641 27.4934 3.55748C27.7927 2.90366 28.0879 2.33003 28.1492 2.28264C28.2322 2.21851 28.7463 2.19654 30.1631 2.19654C31.64 2.19654 32.0652 2.21583 32.0642 2.28264C32.0636 2.33003 31.9563 2.62959 31.8258 2.94844C31.3741 4.05272 29.888 6.56286 28.2747 8.9468C27.1469 10.6131 26.9061 11.0983 26.9084 11.6986C26.9117 12.5118 27.0806 12.764 28.9178 14.6983C29.7375 15.5613 30.8923 16.8773 31.4634 17.599C32.0853 18.385 32.818 19.5776 32.818 19.8038C32.818 19.8182 31.9202 19.8299 30.823 19.8299H28.8281L28.5384 19.6589C28.3782 19.5644 27.8128 19.0026 27.2734 18.4019C24.8799 15.7364 23.3062 14.4189 22.0558 14.0336C21.3814 13.8258 20.5223 13.8706 20.0705 14.1373C19.6838 14.3654 19.4558 14.6943 19.2993 15.2493C19.2042 15.5865 19.1792 16.0295 19.1634 17.6552C19.1461 19.43 19.1315 19.6549 19.03 19.712C18.9674 19.7473 18.5424 19.7921 18.0855 19.8116C15.6355 19.9163 13.1624 18.9591 10.8481 17.0107C8.61721 15.1325 6.44249 12.2546 4.64285 8.79919C3.58654 6.77108 2.45533 3.86833 2.2711 2.71314C2.24688 2.56161 2.21234 2.38341 2.19428 2.31708C2.16356 2.20432 2.28875 2.19654 4.13936 2.19654C5.93687 2.19654 6.12692 2.20756 6.22365 2.31708Z" fill="black"/>
</svg>
