<svg width="17" height="30" viewBox="0 0 17 30" fill="none" xmlns="http://www.w3.org/2000/svg">
<path fill-rule="evenodd" clip-rule="evenodd" d="M11.1833 0.0534249C9.34316 0.319108 8.05062 0.894815 6.99026 1.92095C6.09751 2.78492 5.54046 3.79857 5.22521 5.1325C5.10616 5.63636 5.09095 5.94087 5.06635 8.31425L5.03912 10.9388H2.51956H0V13.6067V16.2746L2.50825 16.2899L5.0165 16.3053L5.03273 23.1526L5.04897 30H8.05222H11.0555V23.138V16.276H13.5478C14.9185 16.276 16.041 16.2693 16.0423 16.2613C16.2096 15.1932 16.7787 11.0134 16.7609 10.9828C16.7469 10.9586 15.4556 10.9388 13.8912 10.9388H11.0471L11.0686 8.75412C11.0897 6.61739 11.0934 6.56179 11.2412 6.22227C11.5405 5.53448 12.1704 5.1281 13.1107 5.01608C13.3687 4.98534 14.3493 4.95936 15.2899 4.95836L17 4.95655L16.9833 2.56657L16.9666 0.176589L16.1359 0.107324C14.7738 -0.00628052 11.8195 -0.0384206 11.1833 0.0534249Z" fill="black"/>
</svg>
