<svg width="52" height="52" viewBox="0 0 52 52" fill="none" xmlns="http://www.w3.org/2000/svg">
<path fill-rule="evenodd" clip-rule="evenodd" d="M24.1246 0.134754C23.3076 0.316204 22.0778 0.827338 21.2665 1.32248C19.8519 2.18596 18.4238 3.91444 17.7765 5.54636C16.9359 7.66553 16.9212 10.096 17.7363 12.1954C18.5434 14.2746 20.3273 16.1518 22.3957 17.0986C25.0313 18.3049 28.3815 18.0372 30.8341 16.4241C31.6883 15.8622 33.0873 14.3984 33.5775 13.5533C34.5462 11.8834 34.8932 10.455 34.8077 8.48862C34.7419 6.97551 34.58 6.30599 33.9712 5.03123C32.8789 2.74425 30.8405 1.00458 28.3897 0.267612C27.4277 -0.0215799 25.1481 -0.0926221 24.1246 0.134754ZM27.6519 2.22081C30.1236 2.85896 32.0089 4.77361 32.6515 7.29812C32.8508 8.08051 32.8495 9.67091 32.6489 10.5299C32.1939 12.4788 30.8305 14.1845 28.999 15.0962C28.0015 15.5926 27.1421 15.7924 26.0033 15.7924C24.1116 15.7924 22.5093 15.1204 21.1785 13.7692C19.6564 12.2237 18.964 10.258 19.2014 8.15627C19.5321 5.2298 21.5058 2.97142 24.4293 2.17468C25.199 1.96483 26.7462 1.98698 27.6519 2.22081ZM29.1006 6.44603C28.9889 6.50743 27.9962 7.46143 26.8947 8.56622L24.892 10.5749L23.9381 9.63052C23.0901 8.79103 22.9433 8.68616 22.6166 8.68616C22.0579 8.68616 21.5905 9.1487 21.5905 9.70177C21.5905 10.1068 21.6458 10.1792 23.0084 11.5574C24.5354 13.1017 24.7938 13.2559 25.3563 12.9579C25.5167 12.8729 26.7561 11.677 28.1104 10.3003C30.5495 7.82125 30.573 7.79316 30.573 7.3625C30.573 6.57417 29.7735 6.07657 29.1006 6.44603ZM15.5777 20.8247C14.6025 21.0662 13.9641 21.4934 12.2294 23.0659C11.2995 23.9089 10.3868 24.6627 10.2011 24.741C9.92994 24.8553 8.96685 24.8834 5.3131 24.8834C0.267614 24.8834 0.437404 24.8611 0.148192 25.5599C-0.052064 26.0438 -0.0484082 28.6526 0.153371 29.14C0.437709 29.8269 1.26249 29.9808 1.79248 29.4458C2.02208 29.214 2.03762 29.1263 2.03762 28.0659V26.9336H5.97673C10.3723 26.9336 10.7213 26.8928 11.634 26.2728C11.9133 26.0832 12.8233 25.3013 13.6561 24.5354C15.7603 22.6006 15.3957 22.7071 19.7551 22.7522C23.1744 22.7875 23.2177 22.7906 23.8829 23.0492C24.2526 23.1929 24.7781 23.4412 25.0508 23.6009C25.4997 23.864 32.0963 30.35 32.0963 30.5284C32.0963 30.6677 31.0845 31.0345 30.4544 31.1235C29.0309 31.3247 27.8106 30.906 26.547 29.7827C24.7573 28.1918 23.3443 27.7514 20.0627 27.7613C18.4583 27.7662 18.1002 27.8684 17.8458 28.3939C17.6895 28.7169 17.6787 28.8346 17.7775 29.1368C17.916 29.5604 18.2211 29.804 18.6128 29.804C18.7679 29.804 18.8948 29.8378 18.8948 29.8791C18.8948 29.9204 17.2294 31.6387 15.1939 33.6977C11.2732 37.6636 11.0772 37.9066 10.9142 39.0039L10.8494 39.4403H6.44345H2.03762V38.4073C2.03762 37.4023 2.0296 37.3662 1.74079 37.0746C1.16318 36.4915 0.232275 36.7894 0.0697954 37.6093C-0.0539934 38.2343 0.000437086 40.457 0.148192 40.8141C0.440248 41.5197 0.185866 41.4906 6.05796 41.4906H11.3532L11.6115 41.8846C12.0635 42.5742 13.2218 43.2332 14.2573 43.3899L14.714 43.4591L14.8292 44.127C15.0616 45.4744 15.7023 46.3291 16.9416 46.945C17.8076 47.3753 18.7599 47.4516 19.6174 47.1593L20.1876 46.9651L20.4631 47.6035C20.7874 48.355 21.578 49.1679 22.318 49.5108C23.0227 49.8373 24.7405 49.8438 25.3673 49.5223L25.7977 49.3016L26.066 49.9051C26.3918 50.6382 27.0476 51.2845 27.8826 51.6957C28.424 51.9623 28.5978 51.9955 29.456 51.9969C31.1351 51.9993 30.7617 52.2874 36.3613 46.6717C40.555 42.466 41.3485 41.7145 41.7045 41.6116C41.9975 41.5268 43.4756 41.4906 46.6502 41.4906C49.9444 41.4906 51.2505 41.4572 51.4443 41.3681C52.0146 41.1058 52 41.3209 52 33.1969C52 27.613 51.9692 25.6448 51.8786 25.4443C51.628 24.889 51.5778 24.8836 46.6991 24.8811C42.5673 24.8791 42.1673 24.8637 41.7942 24.6922C41.5708 24.5896 40.7254 23.8965 39.9156 23.1521C38.2852 21.6535 37.82 21.3066 36.9813 20.9641L36.4121 20.7316L26.2572 20.7132C18.3552 20.6989 15.9858 20.7237 15.5777 20.8247ZM36.6321 23.0894C36.9206 23.2585 37.8554 24.033 38.7095 24.8105C39.7951 25.7988 40.4615 26.3232 40.9243 26.5532L41.5863 26.8824L45.7776 26.9132L49.969 26.9442V33.1871V39.4301L45.6785 39.4609L41.388 39.4916L40.728 39.7926C40.1213 40.0693 39.6735 40.4895 35.1935 44.9855C30.8763 49.3184 30.2691 49.8909 29.881 49.9954C28.5898 50.3428 27.3646 48.9518 27.8361 47.6738C27.8947 47.5151 28.7109 46.6009 29.65 45.6424C30.5892 44.6839 31.4323 43.7856 31.5238 43.6462C31.9677 42.9695 31.4861 42.1057 30.6648 42.1057C30.2362 42.1057 30.2159 42.1232 27.5345 44.8163C26.05 46.307 24.7068 47.5757 24.5496 47.6354C24.0535 47.8238 23.3276 47.7682 22.9465 47.5125C22.3111 47.0863 21.9513 45.9577 22.2583 45.3538C22.3208 45.2306 23.3947 44.0877 24.6447 42.8141C26.8885 40.5275 26.9172 40.4928 26.9172 40.0639C26.9172 39.4507 26.5001 39.0303 25.8914 39.0303C25.461 39.0303 25.4473 39.0422 22.5071 41.992C20.8834 43.621 19.4087 45.028 19.2299 45.1187C17.9915 45.7473 16.5062 44.4803 16.8696 43.1052C16.9685 42.7309 17.3628 42.2852 19.6661 39.9432C22.2984 37.2668 22.3475 37.2091 22.3475 36.7966C22.3475 36.2212 22.0295 35.8585 21.4566 35.781L21.0231 35.7223L18.3596 38.385C15.4973 41.2463 15.1663 41.4933 14.3916 41.3466C13.658 41.2077 13.027 40.572 12.935 39.8791C12.8169 38.9901 12.8263 38.9783 17.4576 34.289C22.3409 29.3446 21.8586 29.6973 23.1746 30.1079C23.9353 30.3452 24.6325 30.7718 25.369 31.4507C26.0503 32.0786 26.8925 32.593 27.7296 32.8926C28.2913 33.0935 28.594 33.1292 29.7606 33.1322C31.4216 33.1365 32.2319 32.9142 33.3794 32.1394C34.3555 31.4803 34.635 31.1363 34.635 30.5939C34.635 30.1725 34.6082 30.1422 30.9538 26.4465L27.2727 22.7237L31.6901 22.7528L36.1075 22.7818L36.6321 23.0894ZM0.65533 32.3609C0.537431 32.4112 0.3388 32.583 0.214097 32.7428C-0.267654 33.3597 0.19988 34.3147 0.983741 34.3147C1.45178 34.3147 1.69509 34.1734 1.89322 33.7866C2.30581 32.9811 1.46712 32.0152 0.65533 32.3609Z" fill="#1FB29A"/>
</svg>
