<svg width="321" height="166" viewBox="0 0 321 166" fill="none" xmlns="http://www.w3.org/2000/svg">
<path fill-rule="evenodd" clip-rule="evenodd" d="M138.329 0.463457C92.9821 4.84543 50.1175 23.9515 22.668 52.017C18.2218 56.5628 17.0257 57.9125 13.2276 62.667C8.98664 67.9769 5.11215 74.0311 1.66079 80.7425C-0.135283 84.2349 -0.58285 85.8374 0.854474 83.6284C1.23998 83.0363 2.84175 80.9346 4.41366 78.958C5.98556 76.9817 7.16458 75.1914 7.03311 74.9791C6.90163 74.7669 6.94313 74.641 7.12502 74.6995C7.30731 74.758 10.3309 71.9026 13.8443 68.3545C20.6625 61.4688 23.4483 58.9821 30.51 53.4794C45.0927 42.1161 63.1174 32.0056 82.4802 24.3287C122.568 8.43427 166.597 3.15383 204.067 9.74635C208.63 10.5492 218.345 12.7481 221.132 13.6086C223.121 14.2228 217.602 11.6928 213.229 9.9853C201.58 5.43679 189.824 2.54543 175.949 0.815876C168.731 -0.0837558 146.177 -0.295207 138.329 0.463457ZM32.8371 137.93V139.672L156.848 139.77C225.054 139.823 281.252 139.812 281.732 139.744C282.487 139.637 282.604 139.389 282.604 137.904V136.189H157.721H32.8371V137.93Z" fill="#1FB29A"/>
<path fill-rule="evenodd" clip-rule="evenodd" d="M279.501 3.54811V5.6781H282.41H285.319V15.1662V24.6544H287.646H289.973V15.1662V5.6781H292.688H295.403V3.54811V1.41811H287.452H279.501V3.54811ZM298.117 13.0363V24.6544H300.445H302.772L302.782 17.0058L302.793 9.35718L305.253 14.9726L307.713 20.588H309.524H311.334L313.743 14.9726L316.152 9.35718L316.257 17.0058L316.362 24.6544H318.681H321V13.0192V1.38403L318.273 1.49789L315.546 1.61175L314.188 4.70992C313.44 6.41391 312.103 9.5086 311.216 11.5871C310.329 13.6656 309.492 15.234 309.355 15.0725C309.217 14.911 307.812 11.773 306.232 8.09854L303.359 1.41811H300.738H298.117V13.0363ZM159.466 11.9046C135.988 12.9844 113.594 18.4147 95.5882 27.3951C91.8107 29.2792 85.1949 33.0741 85.1949 33.3572C85.1949 33.4288 86.7222 32.8889 88.5885 32.1574C116.887 21.0636 154.917 17.7509 192.044 23.1448C241.327 30.3051 287.498 52.299 313.293 80.9021C314.972 82.7641 316.346 84.149 316.346 83.9797C316.346 83.8109 315.393 82.1569 314.228 80.3045C301.98 60.8252 281.833 43.8418 256.429 31.5823C233.246 20.3948 204.253 13.0572 179.372 12.0809C167.794 11.6262 165.885 11.6095 159.466 11.9046ZM64.8347 39.8548C64.742 40.1212 64.2463 42.1687 63.7336 44.4052C63.2205 46.6417 61.1882 55.1811 59.2168 63.3815C57.2459 71.582 54.946 81.167 54.1063 84.6815C51.1397 97.0959 48.7619 107.053 46.6152 116.05C45.4211 121.056 44.2688 125.805 44.0551 126.604L43.6665 128.056H41.5482H39.4302V129.605V131.154H50.4835H61.5369V129.652V128.151L58.1433 127.98C49.7199 127.557 49.2692 125.444 53.5726 106.562C55.029 100.172 57.2028 90.5874 58.4035 85.2624L60.5863 75.5806L65.895 75.4729L71.2037 75.3653L72.0011 77.9902C72.4398 79.4339 75.9924 91.2457 79.8963 104.239L86.9945 127.862L83.9616 127.975L80.9287 128.087V129.62V131.154H91.4003H101.872V129.605V128.056H99.7004C96.5469 128.056 95.0204 127.198 93.9073 124.801C93.4031 123.716 87.4626 104.355 80.7057 81.7769C73.9484 59.199 68.2616 40.421 68.0677 40.0484C67.6523 39.2499 65.0984 39.0969 64.8347 39.8548ZM239.166 39.5268C239.166 39.6124 237.333 47.3241 235.093 56.6636C232.853 66.003 228.126 85.7561 224.588 100.56C221.051 115.363 218.013 127.625 217.837 127.808C217.661 127.992 215.538 128.074 213.119 127.992C209.772 127.878 208.481 127.682 207.714 127.169C205.611 125.763 205.634 125.994 205.418 103.658C205.218 83.029 205.213 82.9287 204.304 80.6612C203.803 79.4088 202.787 77.716 202.049 76.8993C200.469 75.1534 196.783 73.2109 194.364 72.8484C191.265 72.3845 186.689 73.9819 184.014 76.462L182.965 77.4345L181.512 76.16C176.127 71.4395 168.697 71.3601 163.588 75.9687C162.029 77.3756 161.987 77.3888 161.987 76.4702C161.987 75.9512 162.685 74.5927 163.538 73.4506C164.391 72.3085 165.089 71.2621 165.089 71.1246C165.089 70.9872 164.649 70.4613 164.11 69.9563C162.942 68.8599 164.129 67.7821 155.004 78.2237L148.294 85.9018L149.309 86.9153L150.324 87.9284L152.825 85.5304C154.201 84.2113 155.429 83.1324 155.554 83.1324C155.679 83.1324 155.781 93.2402 155.781 105.594V128.056H152.485H149.188V129.605V131.154H159.272H169.356V129.655C169.356 128.167 169.344 128.155 167.613 127.961C165.478 127.72 163.283 126.144 162.51 124.297C162.046 123.187 161.972 119.795 162.067 103.92L162.181 84.8751L163.255 82.6901C165.729 77.6602 170.748 75.2162 174.049 77.4345C176.543 79.1102 176.519 78.8538 176.639 104.723L176.748 128.056H174.215H171.683V129.605V131.154H181.572H191.462V129.659V128.164L189.508 127.933C188.434 127.806 186.846 127.304 185.98 126.818C183.099 125.201 183.139 125.44 183.003 108.692C182.836 88.1642 183.481 82.7463 186.574 78.6966C188.766 75.8269 192.615 75.9849 195.587 79.0668C198.875 82.4756 199.202 85.1749 199.211 108.983L199.219 128.056H196.504H193.789V129.605V131.154H214.95H236.11L235.99 129.702L235.87 128.25L232.573 128.03C224.416 127.486 223.61 125.046 226.889 110.822C227.871 106.562 229.987 97.2388 231.592 90.1033C233.196 82.9678 234.602 76.7327 234.715 76.2475C234.918 75.3753 234.982 75.3664 240.243 75.4729L245.566 75.5806L247.429 81.7769C248.454 85.1849 249.963 90.2388 250.782 93.0078C251.602 95.7768 254.219 104.49 256.598 112.371C258.978 120.252 261.015 127.006 261.125 127.378C261.304 127.984 260.994 128.056 258.196 128.056H255.068V129.605V131.154H265.539H276.011V129.605V128.056L273.781 128.054C271.348 128.053 269.508 127.217 268.496 125.654C268.179 125.165 267.4 123.021 266.765 120.891C265.662 117.191 245.219 49.2155 243.209 42.5657L242.244 39.3707H240.705C239.859 39.3707 239.166 39.4408 239.166 39.5268ZM68.141 65.0859C69.2013 68.8514 70.0693 72.0123 70.0693 72.1103C70.0693 72.2086 68.2368 72.2888 65.997 72.2888C62.9447 72.2888 61.9247 72.1645 61.9247 71.7927C61.9247 71.5197 62.7974 68.3618 63.8639 64.7753C64.9305 61.1888 65.8031 58.1592 65.8031 58.0426C65.8031 57.1511 66.4822 59.1975 68.141 65.0859ZM242.403 64.9395C243.396 68.4587 244.208 71.5522 244.208 71.8136C244.208 72.1591 243.085 72.2888 240.09 72.2888C236.357 72.2888 235.99 72.2257 236.159 71.6111C237.963 65.0263 240.158 58.0298 240.35 58.2529C240.486 58.4113 241.41 61.42 242.403 64.9395ZM139.88 72.6761C139.88 74.1671 139.815 75.387 139.735 75.387C139.656 75.387 138.827 75.0555 137.893 74.6508C134.368 73.1214 130.037 73.2891 126.365 75.0969C125.392 75.576 123.497 76.9899 122.154 78.2392L119.712 80.5102L119.721 79.0138C119.728 77.797 120.125 77.01 121.846 74.8064L123.962 72.0959L122.974 71.1274L121.986 70.1588L120.205 72.0952C115.856 76.8264 107.302 86.6759 107.302 86.9524C107.302 87.1201 107.742 87.67 108.28 88.1747L109.258 89.0921L111.382 86.997L113.507 84.9014V106.479V128.056H110.21H106.914V129.605V131.154H116.998H127.081V129.605C127.081 128.073 127.065 128.056 125.627 128.055C123.808 128.055 121.758 127.034 120.71 125.608C119.927 124.542 119.904 124.034 119.795 105.375L119.685 86.2348L121.222 84.1563C123.091 81.6309 125.478 79.5416 127.748 78.4441C129.108 77.7869 129.972 77.6548 132.128 77.7768C135.333 77.9573 136.579 78.709 137.832 81.2162C138.837 83.2273 139.876 89.1672 139.878 92.911L139.88 95.5251H141.431H142.983V82.7451V69.9652H141.431H139.88V72.6761ZM207.558 145.082C204.403 145.6 201.284 148.099 199.904 151.213C199.035 153.174 198.883 156.454 199.549 158.864C200.102 160.863 202.262 163.389 204.584 164.753C206.154 165.674 206.806 165.814 209.497 165.808C211.919 165.803 212.94 165.619 214.151 164.971C218.919 162.418 221.102 157.428 219.642 152.414C218.182 147.397 212.915 144.202 207.558 145.082ZM230.53 145.136C227.02 145.677 223.664 148.636 222.496 152.218C221.734 154.556 222.168 158.615 223.405 160.723C226.901 166.68 234.928 167.787 239.86 162.99C244.227 158.742 244.119 151.766 239.624 147.719C237.007 145.363 234.208 144.568 230.53 145.136ZM268.642 145.103C266.828 145.419 265.824 146.001 264.611 147.44C263.801 148.402 263.6 149.047 263.6 150.684C263.6 153.861 264.608 155.026 268.979 156.906C270.962 157.759 272.813 158.77 273.093 159.152C274.717 161.372 270.508 163.215 268.112 161.333C267.551 160.892 267.091 160.282 267.091 159.977C267.091 159.572 266.573 159.425 265.151 159.425C263.278 159.425 263.212 159.462 263.212 160.529C263.212 163.311 266.753 166.016 270.372 166C275.448 165.978 278.607 162.252 277.027 158.15C276.309 156.284 275.016 155.296 271.388 153.841C268.459 152.666 267.478 151.878 267.478 150.698C267.478 149.539 268.341 148.9 269.97 148.854C271.373 148.814 272.908 149.816 272.908 150.771C272.908 151.138 273.481 151.292 274.847 151.292C276.538 151.292 276.786 151.191 276.786 150.505C276.786 149.112 275.743 147.17 274.531 146.309C273.126 145.309 270.521 144.776 268.642 145.103ZM178.664 155.35V165.692L184.384 165.552C189.364 165.431 190.313 165.302 191.712 164.562C193.873 163.418 195.913 160.952 196.536 158.731C198.013 153.464 196.029 148.57 191.524 146.37C189.524 145.392 188.877 145.288 184 145.154L178.664 145.008V155.35ZM245.934 145.587C245.83 145.857 245.792 150.432 245.849 155.753L245.953 165.428L247.99 165.545L250.026 165.662V162.156V158.65L251.286 158.653C252.404 158.656 252.868 159.052 255.379 162.139L258.211 165.621H260.578C262.794 165.621 262.908 165.578 262.364 164.943C262.044 164.571 260.635 162.851 259.231 161.122L256.678 157.978L257.848 157.114C259.059 156.22 260.476 153.615 260.486 152.26C260.511 149.264 258.182 146.258 255.267 145.525C252.833 144.913 246.176 144.957 245.934 145.587ZM212.731 149.651C214.698 150.563 216.007 152.811 216.007 155.276C216.007 160.215 211.704 163.305 207.212 161.592C204.373 160.509 203.097 158.563 203.097 155.318C203.097 150.17 207.838 147.382 212.731 149.651ZM235.676 149.565C239.014 151.236 240.144 156.009 237.964 159.225C235.109 163.436 228.337 162.765 226.551 158.095C224.268 152.127 230.033 146.739 235.676 149.565ZM189.806 149.729C194.392 151.808 194.409 158.827 189.833 161.204C189.187 161.54 187.59 161.748 185.664 161.748H182.542V155.617C182.542 152.244 182.658 149.369 182.801 149.227C183.377 148.651 188.19 148.997 189.806 149.729ZM255.209 149.771C255.998 150.39 256.231 150.915 256.231 152.067C256.231 154.168 254.904 155.165 252.106 155.165H250.026V152.067V148.969H252.106C253.624 148.969 254.464 149.186 255.209 149.771Z" fill="white"/>
</svg>
